{"glyphs":{"0":{"ha":1233,"x_min":0,"x_max":0,"o":"m 617 983 b 53 476 193 983 53 743 b 617 -22 53 219 196 -22 b 1181 476 1038 -22 1181 219 b 617 983 1181 740 1038 983 z m 617 769 b 861 476 726 769 861 714 b 617 192 861 240 726 192 b 372 476 507 192 372 247 b 617 769 372 714 507 769 z "},"1":{"ha":849,"x_min":0,"x_max":0,"o":"m 365 0 l 668 0 l 668 961 l 428 961 b 118 783 371 804 257 783 l 71 783 l 71 578 l 365 578 z "},"2":{"ha":1233,"x_min":0,"x_max":0,"o":"m 1150 214 l 396 214 b 1163 660 532 390 1163 296 b 638 983 1163 876 958 983 b 76 613 326 983 96 896 l 418 613 b 636 769 428 724 518 769 b 821 664 761 768 821 725 b 721 567 821 617 776 582 l 489 501 b 43 0 244 433 56 319 l 1150 0 z "},"3":{"ha":1233,"x_min":0,"x_max":0,"o":"m 444 411 l 625 411 b 826 306 768 411 826 378 b 613 192 826 222 726 192 b 388 325 461 192 394 244 l 57 325 b 624 -22 69 103 201 -22 b 1176 296 976 -22 1176 83 b 976 524 1176 440 1065 508 l 976 526 b 1142 714 1054 532 1142 601 b 636 983 1142 886 992 983 b 82 699 371 983 108 935 l 424 699 b 618 789 451 779 518 789 b 800 694 719 789 800 769 b 647 606 800 625 744 606 l 444 606 z "},"4":{"ha":1233,"x_min":0,"x_max":0,"o":"m 714 0 l 1000 0 l 1000 161 l 1178 161 l 1178 367 l 1000 367 l 1000 961 l 600 961 l 56 378 l 56 161 l 714 161 z m 714 367 l 358 367 l 714 747 z "},"5":{"ha":1233,"x_min":0,"x_max":0,"o":"m 100 419 l 415 419 b 610 469 463 454 531 469 b 835 328 768 469 835 401 b 607 192 835 250 769 192 b 394 304 500 192 413 219 l 53 304 b 611 -22 79 96 219 -22 b 1165 331 983 -22 1165 115 b 678 656 1165 550 965 656 b 381 610 543 656 450 638 l 407 756 l 1106 756 l 1106 961 l 194 961 z "},"6":{"ha":1233,"x_min":0,"x_max":0,"o":"m 683 628 b 386 554 561 628 469 608 b 640 778 397 672 440 778 b 828 690 736 778 810 751 l 1153 690 b 632 983 1118 925 868 983 b 67 485 299 983 67 840 b 647 -22 67 72 322 -22 b 1167 307 999 -22 1167 108 b 683 628 1167 574 908 628 z m 625 433 b 836 303 790 433 836 374 b 626 183 836 244 792 183 b 417 303 476 183 417 244 b 625 433 417 367 443 433 z "},"7":{"ha":1157,"x_min":0,"x_max":0,"o":"m 32 756 l 783 756 l 585 585 b 183 0 371 401 211 226 l 600 0 b 1125 697 658 276 861 471 l 1125 961 l 32 961 z "},"8":{"ha":1233,"x_min":0,"x_max":0,"o":"m 617 593 b 419 682 499 593 419 607 b 617 778 419 763 499 778 b 814 682 735 778 814 763 b 617 593 814 607 735 593 z m 617 415 b 836 301 801 415 836 357 b 617 183 836 242 801 183 b 397 301 432 183 397 242 b 617 415 397 357 432 415 z m 617 983 b 89 714 264 983 89 907 b 256 525 89 576 200 542 l 256 522 b 56 297 131 499 56 414 b 617 -22 56 61 289 -22 b 1178 297 944 -22 1178 61 b 978 522 1178 414 1103 499 l 978 525 b 1144 714 1033 542 1144 576 b 617 983 1144 907 969 983 z "},"9":{"ha":1233,"x_min":0,"x_max":0,"o":"m 81 271 b 601 -22 115 36 365 -22 b 1167 476 935 -22 1167 121 b 586 983 1167 889 911 983 b 67 654 235 983 67 853 b 550 333 67 388 325 333 b 847 407 672 333 764 353 b 593 183 836 289 793 183 b 406 271 497 183 424 210 z m 608 528 b 397 658 443 528 397 588 b 607 778 397 717 442 778 b 817 658 757 778 817 717 b 608 528 817 594 790 528 z "}," ":{"ha":539,"x_min":0,"x_max":0,"o":""},"!":{"ha":539,"x_min":0,"x_max":0,"o":"m 150 351 l 389 351 l 429 992 l 110 992 z m 114 0 l 425 0 l 425 275 l 114 275 z "},"\"":{"ha":926,"x_min":0,"x_max":0,"o":"m 524 444 l 729 444 l 729 992 l 524 992 z m 197 444 l 403 444 l 403 992 l 197 992 z "},"#":{"ha":1233,"x_min":0,"x_max":0,"o":"m 313 0 l 479 0 l 513 240 l 653 240 l 619 0 l 786 0 l 819 240 l 956 240 l 956 401 l 842 401 l 865 563 l 1001 563 l 1001 724 l 888 724 l 921 964 l 754 964 l 721 724 l 581 724 l 614 964 l 447 964 l 414 724 l 278 724 l 278 563 l 392 563 l 368 401 l 232 401 l 232 240 l 346 240 z m 675 401 l 535 401 l 558 563 l 699 563 z "},"$":{"ha":1233,"x_min":0,"x_max":0,"o":"m 561 621 l 468 638 b 406 701 429 644 406 667 b 561 789 406 781 518 789 z m 656 367 l 658 367 b 811 275 771 353 811 336 b 656 183 811 204 733 185 z m 578 -146 l 656 -146 l 656 -22 b 1186 301 808 -22 1186 -3 b 885 572 1186 471 1078 543 l 639 610 l 639 789 b 775 676 735 774 769 733 l 1142 676 b 639 983 1122 881 954 967 l 639 1107 l 561 1107 l 561 983 b 64 679 382 983 64 942 b 411 404 64 525 147 442 l 578 381 l 578 183 b 422 297 461 196 429 233 l 47 297 b 578 -22 64 47 278 -17 z "},"%":{"ha":1492,"x_min":0,"x_max":0,"o":"m 242 717 b 350 850 242 815 288 850 b 458 717 414 850 458 815 b 350 583 458 618 414 583 b 242 717 288 583 242 618 z m 353 -22 l 508 -22 l 1140 983 l 985 983 z m 1033 244 b 1142 378 1033 343 1079 378 b 1250 244 1206 378 1250 343 b 1142 111 1250 146 1206 111 b 1033 244 1079 111 1033 146 z m 47 717 b 350 450 47 528 169 450 b 653 717 531 450 653 528 b 350 983 653 906 531 983 b 47 717 169 983 47 906 z m 839 244 b 1142 -22 839 56 961 -22 b 1444 244 1322 -22 1444 56 b 1142 511 1444 433 1322 511 b 839 244 961 511 839 433 z "},"&":{"ha":1363,"x_min":0,"x_max":0,"o":"m 749 218 b 575 164 708 188 638 164 b 379 319 444 164 379 239 b 486 457 379 368 418 433 z m 1381 0 l 1113 239 b 1281 443 1186 307 1228 358 l 1124 553 b 964 375 1078 489 1017 414 l 772 550 b 992 771 894 583 992 647 b 617 1001 992 918 853 1001 b 244 758 413 1001 244 925 b 343 582 244 675 301 618 b 60 288 183 546 60 461 b 492 -31 60 121 188 -31 b 894 82 679 -31 803 21 l 983 0 z m 539 769 b 642 840 539 818 583 840 b 733 767 699 840 733 810 b 622 661 733 726 696 689 b 539 769 583 693 539 736 z "},"’":{"ha":539,"x_min":0,"x_max":0,"o":"m 114 717 l 251 717 b 114 558 246 654 215 576 l 114 444 b 425 815 326 464 425 600 l 425 992 l 114 992 z "},"(":{"ha":668,"x_min":0,"x_max":0,"o":"m 579 -264 b 406 364 456 -69 406 156 b 579 992 406 572 456 797 l 376 992 b 111 364 192 814 111 572 b 376 -264 111 156 192 -86 z "},")":{"ha":668,"x_min":0,"x_max":0,"o":"m 292 -264 b 557 364 476 -86 557 156 b 292 992 557 572 476 814 l 89 992 b 263 364 213 797 263 572 b 89 -264 263 156 213 -69 z "},"*":{"ha":644,"x_min":0,"x_max":0,"o":"m 72 506 l 206 406 l 322 564 l 439 406 l 572 506 l 446 656 l 632 715 l 578 871 l 400 797 l 406 992 l 239 992 l 244 797 l 67 871 l 13 715 l 199 656 z "},"+":{"ha":833,"x_min":0,"x_max":0,"o":"m 319 449 l 65 449 l 65 254 l 319 254 l 319 0 l 514 0 l 514 254 l 768 254 l 768 449 l 514 449 l 514 703 l 319 703 z "},",":{"ha":539,"x_min":0,"x_max":0,"o":"m 114 0 l 251 0 b 114 -158 246 -62 215 -140 l 114 -272 b 425 99 326 -253 425 -117 l 425 275 l 114 275 z "},"-":{"ha":668,"x_min":0,"x_max":0,"o":"m 85 296 l 583 296 l 583 510 l 85 510 z "},".":{"ha":539,"x_min":0,"x_max":0,"o":"m 114 0 l 425 0 l 425 275 l 114 275 z "},"/":{"ha":617,"x_min":0,"x_max":0,"o":"m -4 -31 l 221 -31 l 621 1022 l 396 1022 z "},":":{"ha":539,"x_min":0,"x_max":0,"o":"m 114 478 l 425 478 l 425 753 l 114 753 z m 114 0 l 425 0 l 425 275 l 114 275 z "},";":{"ha":539,"x_min":0,"x_max":0,"o":"m 114 0 l 251 0 b 114 -158 246 -62 215 -140 l 114 -272 b 425 99 326 -253 425 -117 l 425 275 l 114 275 z m 114 478 l 425 478 l 425 753 l 114 753 z "},"<":{"ha":833,"x_min":0,"x_max":0,"o":"m 65 267 l 768 -25 l 768 163 l 296 351 l 768 540 l 768 728 l 65 436 z "},"=":{"ha":833,"x_min":0,"x_max":0,"o":"m 65 410 l 768 410 l 768 604 l 65 604 z m 65 99 l 768 99 l 768 293 l 65 293 z "},">":{"ha":833,"x_min":0,"x_max":0,"o":"m 65 -25 l 768 267 l 768 436 l 65 728 l 65 540 l 538 351 l 65 163 z "},"?":{"ha":1106,"x_min":0,"x_max":0,"o":"m 688 351 b 1049 708 711 488 1049 461 b 549 1017 1049 919 853 1017 b 33 654 204 1017 61 906 l 360 654 b 560 822 367 756 410 822 b 718 718 649 822 718 781 b 638 614 718 682 701 647 l 486 536 b 385 351 411 497 386 453 z m 381 0 l 692 0 l 692 275 l 381 275 z "},"@":{"ha":1111,"x_min":0,"x_max":0,"o":"m 429 481 b 568 628 429 553 489 628 b 681 513 636 628 681 581 b 535 365 681 433 622 365 b 429 481 468 365 429 417 z m 738 747 l 726 694 b 549 781 681 756 619 781 b 260 457 375 781 260 624 b 482 213 260 311 364 213 b 632 275 546 213 599 236 l 638 275 b 719 213 643 235 676 213 b 1082 594 871 213 1082 356 b 581 1022 1082 857 833 1022 b 29 494 275 1022 29 796 b 578 -31 29 188 281 -31 b 1029 183 782 -31 928 44 l 872 183 b 600 103 801 133 708 103 b 182 494 354 103 182 250 b 576 889 182 724 335 889 b 949 574 790 889 949 774 b 826 351 949 415 874 351 b 803 382 811 351 803 361 b 814 447 803 394 810 426 l 869 747 z "},"A":{"ha":1183,"x_min":0,"x_max":0,"o":"m -39 0 l 315 0 l 375 161 l 808 161 l 868 0 l 1222 0 l 796 992 l 392 992 z m 731 367 l 453 367 l 590 742 l 593 742 z "},"B":{"ha":1311,"x_min":0,"x_max":0,"o":"m 431 778 l 760 778 b 861 694 831 778 861 739 b 760 610 861 649 831 610 l 431 610 z m 431 214 l 431 415 l 786 415 b 903 317 856 415 903 382 b 786 214 903 251 856 214 z m 100 0 l 893 0 b 1253 296 1197 0 1253 178 b 1081 544 1253 436 1185 521 l 1081 547 b 1203 747 1151 574 1203 654 b 921 992 1203 843 1161 992 l 100 992 z "},"C":{"ha":1338,"x_min":0,"x_max":0,"o":"m 933 382 b 674 192 911 267 822 192 b 399 496 460 192 399 332 b 674 800 399 660 467 800 b 929 610 861 800 910 681 l 1297 610 b 672 1022 1225 953 975 1022 b 49 496 242 1022 49 828 b 672 -31 49 154 253 -31 b 1300 382 1142 -31 1260 168 z "},"D":{"ha":1338,"x_min":0,"x_max":0,"o":"m 100 0 l 774 0 b 1289 496 1058 0 1289 106 b 817 992 1289 826 1124 992 l 100 992 z m 431 769 l 681 769 b 947 497 857 769 947 682 b 707 222 947 361 896 222 l 431 222 z "},"E":{"ha":1132,"x_min":0,"x_max":0,"o":"m 100 0 l 1093 0 l 1093 214 l 431 214 l 431 393 l 1051 393 l 1051 599 l 431 599 l 431 778 l 1093 778 l 1093 992 l 100 992 z "},"F":{"ha":1056,"x_min":0,"x_max":0,"o":"m 100 0 l 431 0 l 431 385 l 1003 385 l 1003 599 l 431 599 l 431 769 l 1046 769 l 1046 992 l 100 992 z "},"G":{"ha":1389,"x_min":0,"x_max":0,"o":"m 761 357 l 964 357 b 685 183 932 244 847 183 b 390 494 482 183 390 322 b 685 808 390 669 482 808 b 921 665 840 808 900 742 l 1294 665 b 671 1022 1253 951 944 1022 b 49 496 242 1022 49 788 b 672 -31 49 154 239 -31 b 1100 103 929 -31 1057 54 l 1140 0 l 1294 0 l 1294 563 l 761 563 z "},"H":{"ha":1363,"x_min":0,"x_max":0,"o":"m 932 0 l 1263 0 l 1263 992 l 932 992 l 932 638 l 431 638 l 431 992 l 100 992 l 100 0 l 431 0 l 431 415 l 932 415 z "},"I":{"ha":539,"x_min":0,"x_max":0,"o":"m 104 0 l 435 0 l 435 992 l 104 992 z "},"J":{"ha":1029,"x_min":0,"x_max":0,"o":"m 13 356 b 500 -31 13 39 210 -31 b 946 344 883 -31 946 151 l 946 992 l 615 992 l 615 364 b 478 183 615 254 597 183 b 343 397 361 185 343 250 l 13 397 z "},"K":{"ha":1286,"x_min":0,"x_max":0,"o":"m 100 0 l 431 0 l 431 279 l 571 396 l 878 0 l 1319 0 l 836 601 l 1285 992 l 844 992 l 431 603 l 431 992 l 100 992 z "},"L":{"ha":1056,"x_min":0,"x_max":0,"o":"m 100 0 l 1035 0 l 1035 231 l 431 231 l 431 992 l 100 992 z "},"M":{"ha":1622,"x_min":0,"x_max":0,"o":"m 100 0 l 411 0 l 411 742 l 414 742 l 675 0 l 947 0 l 1208 742 l 1211 742 l 1211 0 l 1522 0 l 1522 992 l 1039 992 l 813 338 l 810 338 l 583 992 l 100 992 z "},"N":{"ha":1363,"x_min":0,"x_max":0,"o":"m 100 0 l 419 0 l 419 626 l 422 626 l 897 0 l 1263 0 l 1263 992 l 943 992 l 943 371 l 940 371 l 481 992 l 100 992 z "},"O":{"ha":1389,"x_min":0,"x_max":0,"o":"m 49 496 b 694 -31 49 85 344 -31 b 1340 496 1044 -31 1340 85 b 694 1022 1340 907 1044 1022 b 49 496 344 1022 49 907 z m 399 496 b 694 800 399 703 518 800 b 990 496 872 800 990 703 b 694 192 990 288 872 192 b 399 496 518 192 399 288 z "},"P":{"ha":1235,"x_min":0,"x_max":0,"o":"m 431 786 l 725 786 b 857 661 817 786 857 749 b 725 536 857 574 817 536 l 431 536 z m 100 0 l 431 0 l 431 331 l 849 331 b 1199 661 1115 331 1199 497 b 833 992 1199 849 1103 992 l 100 992 z "},"Q":{"ha":1389,"x_min":0,"x_max":0,"o":"m 1185 -178 l 1331 -17 l 1189 110 b 1340 496 1282 190 1340 314 b 694 1022 1340 907 1044 1022 b 49 496 344 1022 49 907 b 694 -31 49 85 344 -31 b 840 -22 744 -31 792 -28 b 981 1 888 -17 935 -10 z m 760 196 b 694 192 736 193 717 192 b 399 496 518 192 399 288 b 694 800 399 703 518 800 b 990 496 872 800 990 703 b 949 319 990 424 976 364 l 836 418 l 692 256 z "},"R":{"ha":1286,"x_min":0,"x_max":0,"o":"m 431 769 l 749 769 b 872 663 829 769 872 728 b 749 553 872 594 829 553 l 431 553 z m 100 0 l 431 0 l 431 331 l 733 331 b 868 147 817 331 868 303 b 888 0 868 101 869 43 l 1250 0 b 1188 308 1208 50 1203 113 b 1068 486 1179 415 1131 465 l 1068 489 b 1226 715 1157 511 1226 583 b 894 992 1226 881 1138 992 l 100 992 z "},"S":{"ha":1235,"x_min":0,"x_max":0,"o":"m 1161 701 b 564 1022 1140 936 924 1022 b 49 707 129 1022 49 838 b 332 426 49 560 128 457 l 663 376 b 819 288 778 358 819 340 b 646 183 819 203 729 183 b 424 306 474 183 432 231 l 32 306 b 631 -31 51 29 294 -31 b 1203 308 767 -31 1203 -28 b 907 590 1203 483 1092 558 b 472 658 810 607 556 644 b 399 719 422 667 399 686 b 571 817 399 785 460 817 b 786 701 722 817 776 769 z "},"T":{"ha":1056,"x_min":0,"x_max":0,"o":"m -1 769 l 363 769 l 363 0 l 693 0 l 693 769 l 1057 769 l 1057 992 l -1 992 z "},"U":{"ha":1286,"x_min":0,"x_max":0,"o":"m 86 350 b 643 -31 86 76 292 -31 b 1200 350 994 -31 1200 76 l 1200 992 l 869 992 l 869 404 b 643 192 869 243 794 192 b 417 404 492 192 417 243 l 417 992 l 86 992 z "},"V":{"ha":1131,"x_min":0,"x_max":0,"o":"m 390 0 l 740 0 l 1182 992 l 819 992 l 567 285 l 564 285 l 311 992 l -51 992 z "},"W":{"ha":1594,"x_min":0,"x_max":0,"o":"m 297 0 l 624 0 l 796 646 l 799 646 l 971 0 l 1297 0 l 1594 992 l 1275 992 l 1119 322 l 1117 322 l 938 992 l 657 992 l 478 322 l 475 322 l 319 992 l 0 992 z "},"X":{"ha":1183,"x_min":0,"x_max":0,"o":"m -29 0 l 381 0 l 592 300 l 803 0 l 1213 0 l 782 515 l 1167 992 l 774 992 l 592 725 l 410 992 l 17 992 l 401 515 z "},"Y":{"ha":1131,"x_min":0,"x_max":0,"o":"m 400 0 l 731 0 l 731 313 l 1171 992 l 788 992 l 565 571 l 343 992 l -40 992 l 400 313 z "},"Z":{"ha":1131,"x_min":0,"x_max":0,"o":"m 25 0 l 1083 0 l 1083 222 l 472 222 l 1093 797 l 1093 992 l 68 992 l 68 769 l 650 769 l 25 190 z "},"[":{"ha":668,"x_min":0,"x_max":0,"o":"m 100 -264 l 633 -264 l 633 -50 l 394 -50 l 394 778 l 633 778 l 633 992 l 100 992 z "},"\\":{"ha":617,"x_min":0,"x_max":0,"o":"m 400 -31 l 617 -31 l 217 1022 l 0 1022 z "},"]":{"ha":668,"x_min":0,"x_max":0,"o":"m 35 -264 l 568 -264 l 568 992 l 35 992 l 35 778 l 274 778 l 274 -50 l 35 -50 z "},"^":{"ha":833,"x_min":0,"x_max":0,"o":"m 65 454 l 264 454 l 417 783 l 569 454 l 768 454 l 525 961 l 308 961 z "},"_":{"ha":694,"x_min":0,"x_max":0,"o":"m 0 -174 l 694 -174 l 694 -104 l 0 -104 z "},"‘":{"ha":539,"x_min":0,"x_max":0,"o":"m 114 444 l 425 444 l 425 719 l 288 719 b 425 878 293 782 324 860 l 425 992 b 114 621 213 972 114 836 z "},"a":{"ha":1131,"x_min":0,"x_max":0,"o":"m 383 517 b 558 611 397 581 450 611 b 744 531 688 611 744 583 b 656 469 744 492 732 475 l 363 450 b 38 204 151 436 38 375 b 406 -31 38 47 165 -31 b 760 69 554 -31 675 -11 b 775 0 761 49 765 22 l 1069 0 b 1039 136 1046 43 1039 72 l 1039 517 b 560 772 1039 728 833 772 b 89 517 329 772 117 740 z m 753 306 b 489 139 753 203 658 139 b 357 231 410 139 357 172 b 442 307 357 276 382 300 l 640 331 b 753 351 694 338 731 344 z "},"b":{"ha":1131,"x_min":0,"x_max":0,"o":"m 78 0 l 364 0 l 364 89 l 367 89 b 653 -31 429 13 533 -31 b 1093 378 919 -31 1093 117 b 656 772 1093 596 932 772 b 375 657 525 772 425 729 l 372 657 l 372 1014 l 78 1014 z m 372 375 b 582 567 372 492 444 567 b 790 375 717 567 790 500 b 582 183 790 250 717 183 b 372 375 444 183 372 258 z "},"c":{"ha":1131,"x_min":0,"x_max":0,"o":"m 782 307 b 578 164 763 211 689 164 b 356 376 436 164 356 240 b 576 589 356 513 439 589 b 776 460 701 589 763 542 l 1079 460 b 572 783 1053 699 853 783 b 44 376 249 783 44 649 b 572 -31 44 99 239 -31 b 1093 307 903 -31 1049 92 z "},"d":{"ha":1131,"x_min":0,"x_max":0,"o":"m 767 0 l 1053 0 l 1053 1014 l 758 1014 l 758 657 l 756 657 b 475 772 706 729 606 772 b 38 378 199 772 38 596 b 478 -31 38 117 211 -31 b 764 89 597 -31 701 13 l 767 89 z m 758 375 b 549 183 758 258 686 183 b 340 375 414 183 340 250 b 549 567 340 500 414 567 b 758 375 686 567 758 492 z "},"e":{"ha":1131,"x_min":0,"x_max":0,"o":"m 347 460 b 565 614 364 543 426 614 b 783 460 704 614 767 543 z m 761 224 b 583 139 726 179 678 139 b 347 307 432 139 363 210 l 1086 307 l 1086 329 b 564 783 1086 643 886 783 b 44 378 251 783 44 644 b 572 -31 44 99 233 -31 b 1072 224 893 -31 1036 99 z "},"f":{"ha":643,"x_min":0,"x_max":0,"o":"m 0 558 l 154 558 l 154 0 l 449 0 l 449 558 l 643 558 l 643 753 l 449 753 l 449 799 b 511 856 449 843 457 856 l 643 856 l 643 1022 b 471 1033 586 1029 531 1033 b 154 817 201 1033 154 956 l 154 753 l 0 753 z "},"g":{"ha":1157,"x_min":0,"x_max":0,"o":"m 793 657 l 790 657 b 483 772 729 739 614 772 b 38 403 181 772 38 601 b 483 33 38 197 164 33 b 785 129 597 33 719 63 l 785 76 b 565 -119 785 -61 731 -119 b 386 -31 479 -119 400 -99 l 61 -31 b 578 -289 92 -239 281 -289 b 1079 68 939 -289 1079 -183 l 1079 753 l 793 753 z m 349 399 b 565 578 349 497 417 578 b 785 396 717 578 785 501 b 565 219 785 300 732 219 b 349 399 417 219 349 299 z "},"h":{"ha":1081,"x_min":0,"x_max":0,"o":"m 78 0 l 372 0 l 372 369 b 556 550 372 493 451 550 b 708 407 654 550 708 503 l 708 0 l 1003 0 l 1003 496 b 683 772 1003 683 868 772 b 375 644 535 772 426 718 l 372 644 l 372 1017 l 78 1017 z "},"i":{"ha":461,"x_min":0,"x_max":0,"o":"m 83 0 l 378 0 l 378 753 l 83 753 z m 83 839 l 378 839 l 378 1017 l 83 1017 z "},"j":{"ha":489,"x_min":0,"x_max":0,"o":"m -37 -268 b 110 -272 1 -269 54 -272 b 406 10 349 -272 406 -207 l 406 753 l 111 753 l 111 31 b -3 -67 111 -54 100 -67 l -37 -67 z m 111 839 l 406 839 l 406 1017 l 111 1017 z "},"k":{"ha":1081,"x_min":0,"x_max":0,"o":"m 78 0 l 372 0 l 372 194 l 485 285 l 699 0 l 1099 0 l 718 474 l 1065 753 l 667 753 l 372 490 l 372 1017 l 78 1017 z "},"l":{"ha":461,"x_min":0,"x_max":0,"o":"m 83 0 l 378 0 l 378 1017 l 83 1017 z "},"m":{"ha":1622,"x_min":0,"x_max":0,"o":"m 78 0 l 372 0 l 372 421 b 538 550 372 497 429 550 b 664 439 617 550 664 511 l 664 0 l 958 0 l 958 421 b 1124 550 958 497 1015 550 b 1250 439 1203 550 1250 511 l 1250 0 l 1544 0 l 1544 517 b 1253 772 1544 704 1410 772 b 936 643 1103 772 1015 721 b 669 772 869 744 774 772 b 367 643 526 772 438 713 l 364 643 l 364 753 l 78 753 z "},"n":{"ha":1081,"x_min":0,"x_max":0,"o":"m 78 0 l 372 0 l 372 369 b 556 550 372 493 451 550 b 708 407 654 550 708 503 l 708 0 l 1003 0 l 1003 496 b 683 772 1003 683 868 772 b 367 644 535 772 426 718 l 364 644 l 364 753 l 78 753 z "},"o":{"ha":1131,"x_min":0,"x_max":0,"o":"m 565 589 b 782 376 699 589 782 518 b 565 164 782 235 699 164 b 349 376 432 164 349 235 b 565 589 349 518 432 589 z m 38 376 b 565 -31 38 110 225 -31 b 1093 376 906 -31 1093 110 b 565 783 1093 643 906 783 b 38 376 225 783 38 643 z "},"p":{"ha":1131,"x_min":0,"x_max":0,"o":"m 78 -272 l 372 -272 l 372 68 l 375 68 b 656 -31 425 13 525 -31 b 1093 364 932 -31 1093 146 b 653 772 1093 625 919 772 b 367 653 533 772 429 729 l 364 653 l 364 753 l 78 753 z m 372 375 b 582 567 372 492 444 567 b 790 375 717 567 790 500 b 582 183 790 250 717 183 b 372 375 444 183 372 258 z "},"q":{"ha":1131,"x_min":0,"x_max":0,"o":"m 758 -272 l 1053 -272 l 1053 753 l 767 753 l 767 653 l 764 653 b 486 772 701 729 597 772 b 38 364 219 772 38 617 b 467 -31 38 142 189 -31 b 756 68 606 -31 706 13 l 758 68 z m 758 375 b 549 183 758 258 686 183 b 340 375 414 183 340 250 b 549 567 340 500 414 567 b 758 375 686 567 758 492 z "},"r":{"ha":797,"x_min":0,"x_max":0,"o":"m 83 0 l 378 0 l 378 292 b 621 514 378 428 453 514 b 783 489 676 514 746 503 l 783 764 b 683 772 754 769 715 772 b 376 604 550 772 435 704 l 374 604 l 374 753 l 83 753 z "},"s":{"ha":1054,"x_min":0,"x_max":0,"o":"m 38 235 b 535 -31 44 7 326 -31 b 1017 231 847 -31 1017 53 b 714 463 1017 378 917 440 l 460 490 b 365 543 385 499 365 519 b 500 614 365 594 415 614 b 606 597 538 614 576 610 b 658 533 635 586 656 565 l 989 533 b 519 783 972 747 719 783 b 63 515 238 783 63 719 b 322 306 63 388 150 326 l 585 274 b 686 214 657 265 686 254 b 551 147 686 160 617 147 b 421 171 488 147 447 156 b 379 235 394 185 383 207 z "},"t":{"ha":694,"x_min":0,"x_max":0,"o":"m 0 558 l 154 558 l 154 193 b 425 -17 154 31 233 -17 b 649 -3 511 -17 589 -11 l 649 181 b 544 178 610 179 581 178 b 449 256 465 178 449 188 l 449 558 l 643 558 l 643 753 l 449 753 l 449 992 l 154 992 l 154 753 l 0 753 z "},"u":{"ha":1081,"x_min":0,"x_max":0,"o":"m 78 274 b 397 -31 78 47 217 -31 b 714 97 546 -31 654 24 l 717 97 l 717 0 l 1003 0 l 1003 753 l 708 753 l 708 372 b 525 192 708 249 629 192 b 372 364 426 192 372 236 l 372 753 l 78 753 z "},"v":{"ha":1003,"x_min":0,"x_max":0,"o":"m 333 0 l 669 0 l 1017 753 l 682 753 l 501 257 l 321 753 l -14 753 z "},"w":{"ha":1569,"x_min":0,"x_max":0,"o":"m 275 0 l 625 0 l 783 443 l 786 443 l 944 0 l 1294 0 l 1567 753 l 1247 753 l 1092 258 l 1089 258 l 918 753 l 651 753 l 481 258 l 478 258 l 322 753 l 3 753 z "},"x":{"ha":1081,"x_min":0,"x_max":0,"o":"m -8 0 l 371 0 l 540 232 l 710 0 l 1089 0 l 743 390 l 1060 753 l 694 753 l 540 535 l 386 753 l 21 753 l 339 390 z "},"y":{"ha":951,"x_min":0,"x_max":0,"o":"m 89 -264 b 296 -272 146 -268 218 -272 b 578 -94 479 -272 524 -208 l 978 753 l 667 753 l 483 306 l 293 753 l -26 753 l 328 43 l 294 -24 b 160 -78 281 -50 263 -78 l 89 -78 z "},"z":{"ha":926,"x_min":0,"x_max":0,"o":"m 31 0 l 896 0 l 896 206 l 443 206 l 882 575 l 882 753 l 54 753 l 54 547 l 483 547 l 483 544 l 31 178 z "},"{":{"ha":668,"x_min":0,"x_max":0,"o":"m 39 271 b 169 176 68 271 169 261 l 169 -72 b 378 -264 169 -200 243 -264 l 621 -264 l 621 -86 l 544 -86 b 464 0 469 -86 464 -36 l 464 222 b 314 363 463 349 363 358 l 314 365 b 464 493 363 368 463 390 l 464 728 b 544 814 464 764 469 814 l 621 814 l 621 992 l 378 992 b 169 800 243 992 169 928 l 169 539 b 39 457 169 465 68 457 z "},"|":{"ha":308,"x_min":0,"x_max":0,"o":"m 51 -31 l 257 -31 l 257 1022 l 51 1022 z "},"}":{"ha":668,"x_min":0,"x_max":0,"o":"m 629 457 b 499 551 600 457 499 467 l 499 800 b 290 992 499 928 425 992 l 47 992 l 47 814 l 124 814 b 204 728 199 814 204 764 l 204 506 b 354 365 206 379 306 369 l 354 363 b 204 235 306 360 206 338 l 204 0 b 124 -86 204 -36 199 -86 l 47 -86 l 47 -264 l 290 -264 b 499 -72 425 -264 499 -200 l 499 189 b 629 271 499 263 600 271 z "},"~":{"ha":833,"x_min":0,"x_max":0,"o":"m 146 201 b 263 301 168 250 201 301 b 422 253 326 301 378 278 b 564 207 468 228 513 207 b 738 326 650 207 696 268 l 688 501 b 565 401 656 453 621 401 b 424 451 528 401 474 428 b 269 496 371 476 317 496 b 96 376 176 496 126 435 z "},"¡":{"ha":539,"x_min":0,"x_max":0,"o":"m 110 -239 l 429 -239 l 389 401 l 150 401 z m 114 478 l 425 478 l 425 753 l 114 753 z "},"¢":{"ha":1233,"x_min":0,"x_max":0,"o":"m 597 167 b 419 376 483 182 419 256 b 597 588 419 497 485 572 z m 597 -178 l 675 -178 l 675 -28 b 1157 307 992 -21 1122 100 l 846 307 b 675 167 829 221 768 175 l 675 588 b 840 460 778 579 828 533 l 1143 460 b 675 782 1118 688 936 775 l 675 908 l 597 908 l 597 782 b 108 376 282 772 108 643 b 597 -28 108 110 282 -19 z "},"£":{"ha":1233,"x_min":0,"x_max":0,"o":"m 103 418 l 208 418 b 211 358 211 399 211 385 b 83 185 211 275 154 226 l 204 -22 b 417 40 256 6 339 40 b 839 -22 525 40 707 -22 b 1161 82 1008 -22 1107 43 l 1072 311 b 844 228 1017 265 939 228 b 563 263 749 228 651 263 b 407 228 506 263 449 250 l 404 231 b 522 418 490 288 517 356 l 732 418 l 732 563 l 513 563 b 490 667 501 599 490 622 b 638 769 490 725 553 769 b 758 728 697 769 736 754 b 789 624 781 701 789 665 l 1131 624 b 639 983 1131 881 961 983 b 149 694 361 983 149 894 b 182 563 149 653 161 607 l 103 563 z "},"⁄":{"ha":232,"x_min":0,"x_max":0,"o":"m -278 -22 l -122 -22 l 510 983 l 354 983 z "},"¥":{"ha":1233,"x_min":0,"x_max":0,"o":"m 469 0 l 764 0 l 764 135 l 1064 135 l 1064 279 l 764 279 l 764 340 l 796 386 l 1064 386 l 1064 531 l 899 531 l 1204 961 l 839 961 l 617 556 l 394 961 l 29 961 l 336 531 l 169 531 l 169 386 l 438 386 l 469 340 l 469 279 l 169 279 l 169 135 l 469 135 z "},"ƒ":{"ha":1233,"x_min":0,"x_max":0,"o":"m 322 410 l 481 410 l 411 69 b 285 -86 381 -78 353 -86 b 217 -82 263 -86 239 -83 l 179 -262 b 368 -272 232 -265 286 -272 b 683 -72 531 -272 651 -228 l 783 410 l 939 410 l 969 554 l 814 554 l 847 719 b 944 797 857 765 878 797 b 1021 793 971 797 996 794 l 1054 974 b 868 983 994 978 931 983 b 557 783 635 983 576 878 l 511 554 l 353 554 z "},"§":{"ha":1233,"x_min":0,"x_max":0,"o":"m 729 43 b 801 -17 781 31 801 17 b 651 -86 801 -61 736 -86 b 424 33 526 -86 440 -67 l 108 33 b 636 -272 135 -194 351 -272 b 1121 10 982 -272 1121 -157 b 1057 139 1121 56 1099 103 b 1189 349 1126 176 1189 242 b 871 629 1189 493 1100 581 l 557 694 b 440 758 464 714 440 731 b 588 828 440 796 479 828 b 772 726 714 828 769 803 l 1088 726 b 583 1022 1061 956 839 1022 b 138 761 219 1022 138 864 b 188 635 138 717 150 669 b 44 415 106 599 44 536 b 344 133 44 254 181 171 z m 806 404 b 914 317 881 385 914 361 b 881 239 914 293 904 264 l 410 358 b 319 440 339 376 319 407 b 364 517 319 461 332 492 z "},"¤":{"ha":1233,"x_min":0,"x_max":0,"o":"m 617 675 b 794 481 722 675 794 590 b 617 286 794 363 722 286 b 439 481 511 286 439 363 b 617 675 439 599 511 675 z m 224 186 l 325 86 l 408 174 b 617 108 463 133 538 108 b 825 174 696 108 771 133 l 908 86 l 1010 186 l 922 271 b 989 481 964 326 989 400 b 924 690 989 560 964 635 l 1010 774 l 908 875 l 825 789 b 617 853 771 828 697 853 b 408 789 536 853 463 828 l 325 875 l 224 774 l 310 690 b 244 481 269 635 244 560 b 308 271 244 400 269 326 z "},"'":{"ha":539,"x_min":0,"x_max":0,"o":"m 167 444 l 372 444 l 372 992 l 167 992 z "},"“":{"ha":926,"x_min":0,"x_max":0,"o":"m 92 444 l 403 444 l 403 719 l 265 719 b 403 878 271 782 301 860 l 403 992 b 92 621 190 972 92 836 z m 524 444 l 835 444 l 835 719 l 697 719 b 835 878 703 782 733 860 l 835 992 b 524 621 622 972 524 836 z "},"«":{"ha":900,"x_min":0,"x_max":0,"o":"m 478 281 l 764 69 l 764 275 l 594 403 l 764 531 l 764 736 l 478 525 z m 117 281 l 403 69 l 403 275 l 233 403 l 403 531 l 403 736 l 117 525 z "},"‹":{"ha":539,"x_min":0,"x_max":0,"o":"m 117 281 l 403 69 l 403 275 l 233 403 l 403 531 l 403 736 l 117 525 z "},"›":{"ha":539,"x_min":0,"x_max":0,"o":"m 136 69 l 422 281 l 422 525 l 136 736 l 136 531 l 306 403 l 136 275 z "},"ﬁ":{"ha":1106,"x_min":0,"x_max":0,"o":"m 0 558 l 154 558 l 154 0 l 449 0 l 449 558 l 643 558 l 643 753 l 449 753 l 449 799 b 511 856 449 843 457 856 l 643 856 l 643 1022 b 471 1033 586 1029 531 1033 b 154 817 201 1033 154 956 l 154 753 l 0 753 z m 728 0 l 1022 0 l 1022 753 l 728 753 z m 728 839 l 1022 839 l 1022 1017 l 728 1017 z "},"ﬂ":{"ha":1106,"x_min":0,"x_max":0,"o":"m 0 558 l 154 558 l 154 0 l 449 0 l 449 558 l 643 558 l 643 753 l 449 753 l 449 799 b 511 856 449 843 457 856 l 643 856 l 643 1022 b 471 1033 586 1029 531 1033 b 154 817 201 1033 154 956 l 154 753 l 0 753 z m 728 0 l 1022 0 l 1022 1017 l 728 1017 z "},"–":{"ha":694,"x_min":0,"x_max":0,"o":"m 0 306 l 694 306 l 694 500 l 0 500 z "},"†":{"ha":1233,"x_min":0,"x_max":0,"o":"m 465 -272 l 768 -272 l 768 489 l 1110 489 l 1110 703 l 768 703 l 768 992 l 465 992 l 465 703 l 124 703 l 124 489 l 465 489 z "},"‡":{"ha":1233,"x_min":0,"x_max":0,"o":"m 124 -4 l 469 -4 l 469 -272 l 764 -272 l 764 -4 l 1110 -4 l 1110 190 l 764 190 l 764 529 l 1110 529 l 1110 724 l 764 724 l 764 992 l 469 992 l 469 724 l 124 724 l 124 529 l 469 529 l 469 190 l 124 190 z "},"·":{"ha":539,"x_min":0,"x_max":0,"o":"m 104 361 b 269 196 104 269 178 196 b 435 361 361 196 435 269 b 269 526 435 453 361 526 b 104 361 178 526 104 453 z "},"¶":{"ha":1000,"x_min":0,"x_max":0,"o":"m 356 -242 l 550 -242 l 550 839 l 699 839 l 699 -242 l 893 -242 l 893 992 l 388 992 b 32 721 194 992 32 944 b 356 458 32 547 154 458 z "},"•":{"ha":694,"x_min":0,"x_max":0,"o":"m 100 496 b 347 249 100 358 210 249 b 594 494 483 249 594 358 b 346 743 594 632 483 743 b 100 496 210 743 100 632 z "},"‚":{"ha":539,"x_min":0,"x_max":0,"o":"m 114 0 l 251 0 b 114 -158 246 -62 215 -140 l 114 -272 b 425 99 326 -253 425 -117 l 425 275 l 114 275 z "},"„":{"ha":926,"x_min":0,"x_max":0,"o":"m 524 0 l 661 0 b 524 -158 656 -62 625 -140 l 524 -272 b 835 99 736 -253 835 -117 l 835 275 l 524 275 z m 92 0 l 229 0 b 92 -158 224 -62 193 -140 l 92 -272 b 403 99 304 -253 403 -117 l 403 275 l 92 275 z "},"”":{"ha":926,"x_min":0,"x_max":0,"o":"m 524 717 l 661 717 b 524 558 656 654 625 576 l 524 444 b 835 815 736 464 835 600 l 835 992 l 524 992 z m 92 717 l 229 717 b 92 558 224 654 193 576 l 92 444 b 403 815 304 464 403 600 l 403 992 l 92 992 z "},"»":{"ha":900,"x_min":0,"x_max":0,"o":"m 136 69 l 422 281 l 422 525 l 136 736 l 136 531 l 306 403 l 136 275 z m 497 69 l 783 281 l 783 525 l 497 736 l 497 531 l 667 403 l 497 275 z "},"…":{"ha":1389,"x_min":0,"x_max":0,"o":"m 76 0 l 388 0 l 388 275 l 76 275 z m 539 0 l 850 0 l 850 275 l 539 275 z m 1001 0 l 1313 0 l 1313 275 l 1001 275 z "},"‰":{"ha":1621,"x_min":0,"x_max":0,"o":"m 169 736 b 243 881 169 822 182 881 b 319 736 306 881 319 826 b 243 592 319 644 306 592 b 169 736 182 592 169 650 z m 153 -22 l 308 -22 l 940 983 l 785 983 z m 767 225 b 840 369 767 311 779 369 b 917 225 903 369 917 315 b 840 81 917 133 903 81 b 767 225 779 81 767 139 z m 8 736 b 244 489 8 604 76 489 b 481 736 392 489 481 563 b 244 983 481 908 392 983 b 8 736 76 983 8 868 z m 606 225 b 842 -22 606 93 674 -22 b 1078 225 989 -22 1078 51 b 842 472 1078 397 989 472 b 606 225 674 472 606 357 z m 1140 225 b 1376 -22 1140 93 1208 -22 b 1613 225 1524 -22 1613 51 b 1376 472 1613 397 1524 472 b 1140 225 1208 472 1140 357 z m 1301 225 b 1375 369 1301 311 1314 369 b 1451 225 1438 369 1451 315 b 1375 81 1451 133 1438 81 b 1301 225 1314 81 1301 139 z "},"¿":{"ha":1106,"x_min":0,"x_max":0,"o":"m 418 401 b 57 44 394 265 57 292 b 557 -264 57 -167 253 -264 b 1072 99 901 -264 1044 -153 l 746 99 b 546 -69 739 -3 696 -69 b 388 35 457 -69 388 -28 b 468 139 388 71 404 106 l 619 217 b 721 401 694 256 719 300 z m 414 478 l 725 478 l 725 753 l 414 753 z "},"`":{"ha":386,"x_min":0,"x_max":0,"o":"m 90 839 l 368 839 l 242 1033 l -117 1033 z "},"´":{"ha":386,"x_min":0,"x_max":0,"o":"m 18 839 l 296 839 l 503 1033 l 144 1033 z "},"ˆ":{"ha":386,"x_min":0,"x_max":0,"o":"m -219 839 l 83 839 l 182 946 l 281 839 l 606 839 l 399 1033 l -12 1033 z "},"˜":{"ha":386,"x_min":0,"x_max":0,"o":"m -46 832 b 18 882 -39 857 -24 882 b 101 865 33 882 69 872 b 369 817 272 826 311 817 b 565 1022 499 817 551 917 l 436 1022 b 376 974 428 1001 413 974 b 338 981 364 974 351 978 l 144 1021 b 46 1033 100 1031 72 1033 b -179 832 -50 1033 -142 992 z "},"¯":{"ha":386,"x_min":0,"x_max":0,"o":"m -172 861 l 558 861 l 558 1022 l -172 1022 z "},"˘":{"ha":386,"x_min":0,"x_max":0,"o":"m -118 1033 b 193 817 -96 874 13 817 b 408 865 283 817 356 831 b 504 1033 461 900 493 954 l 343 1033 b 193 961 332 981 281 961 b 89 978 150 961 115 967 b 43 1033 64 989 49 1007 z "},"˙":{"ha":386,"x_min":0,"x_max":0,"o":"m 46 826 l 340 826 l 340 1004 l 46 1004 z "},"¨":{"ha":386,"x_min":0,"x_max":0,"o":"m -167 826 l 128 826 l 128 1004 l -167 1004 z m 258 826 l 553 826 l 553 1004 l 258 1004 z "},"˚":{"ha":386,"x_min":0,"x_max":0,"o":"m 10 1000 b 193 817 10 899 92 817 b 376 1000 294 817 376 899 b 193 1183 376 1101 294 1183 b 10 1000 92 1183 10 1101 z m 113 1000 b 193 1081 113 1044 149 1081 b 274 1000 238 1081 274 1044 b 193 919 274 956 238 919 b 113 1000 149 919 113 956 z "},"¸":{"ha":386,"x_min":0,"x_max":0,"o":"m -12 -283 b 190 -310 24 -293 82 -310 b 385 -187 313 -310 385 -269 b 247 -78 385 -107 303 -78 b 188 -81 222 -78 203 -79 l 225 -21 l 129 -21 l 51 -136 l 86 -164 b 136 -154 99 -160 114 -154 b 190 -189 164 -154 190 -165 b 125 -232 190 -212 167 -232 b 13 -212 83 -232 42 -221 z "},"˝":{"ha":386,"x_min":0,"x_max":0,"o":"m -194 839 l 83 839 l 290 1033 l -68 1033 z m 229 839 l 507 839 l 714 1033 l 356 1033 z "},"˛":{"ha":386,"x_min":0,"x_max":0,"o":"m 310 0 b 101 -175 183 -29 101 -93 b 279 -289 101 -246 151 -289 b 463 -262 367 -289 419 -278 l 456 -185 b 379 -200 426 -196 399 -200 b 296 -143 321 -200 296 -174 b 435 0 296 -89 356 -49 z "},"ˇ":{"ha":386,"x_min":0,"x_max":0,"o":"m -12 839 l 399 839 l 606 1033 l 303 1033 l 204 926 l 106 1033 l -219 1033 z "},"—":{"ha":1389,"x_min":0,"x_max":0,"o":"m 0 306 l 1389 306 l 1389 500 l 0 500 z "},"Æ":{"ha":1594,"x_min":0,"x_max":0,"o":"m -24 0 l 326 0 l 410 188 l 739 188 l 739 0 l 1556 0 l 1556 214 l 1033 214 l 1033 393 l 1531 393 l 1531 599 l 1033 599 l 1033 778 l 1550 778 l 1550 992 l 475 992 z m 739 393 l 501 393 l 675 786 l 739 786 z "},"ª":{"ha":735,"x_min":0,"x_max":0,"o":"m 719 497 b 699 579 703 524 699 540 l 699 819 b 374 983 699 956 565 983 b 156 956 290 983 214 979 b 50 822 99 932 60 892 l 265 822 b 369 872 275 854 310 872 b 481 828 443 872 481 856 b 421 796 481 814 472 799 l 247 788 b 15 638 90 781 15 733 b 272 481 15 526 97 481 b 501 539 382 481 446 501 b 510 497 501 526 504 511 z m 485 693 b 325 600 485 639 424 600 b 249 644 283 600 249 619 b 304 688 249 669 268 683 l 413 703 b 485 713 436 706 471 708 z "},"Ł":{"ha":1056,"x_min":0,"x_max":0,"o":"m 0 228 l 100 289 l 100 0 l 1035 0 l 1035 231 l 431 231 l 431 468 l 668 614 l 668 836 l 431 690 l 431 992 l 100 992 l 100 511 l 0 450 z "},"Ø":{"ha":1389,"x_min":0,"x_max":0,"o":"m 426 347 b 399 496 408 388 399 438 b 694 800 399 703 518 800 b 900 732 779 800 850 778 z m 963 644 b 990 496 981 604 990 554 b 694 192 990 288 872 192 b 489 260 611 192 540 213 z m 43 36 l 110 -49 l 256 69 b 694 -31 372 -4 528 -31 b 1340 496 1044 -31 1340 85 b 1219 853 1340 656 1296 771 l 1346 956 l 1279 1040 l 1133 922 b 694 1022 1018 996 863 1022 b 49 496 344 1022 49 907 b 169 139 49 335 94 219 z "},"Œ":{"ha":1621,"x_min":0,"x_max":0,"o":"m 796 358 b 601 183 796 281 725 183 b 379 496 433 183 379 329 b 601 808 379 667 433 808 b 796 656 704 808 796 733 z m 797 0 l 1582 0 l 1582 214 l 1082 214 l 1082 393 l 1556 393 l 1556 599 l 1082 599 l 1082 778 l 1574 778 l 1574 992 l 797 992 l 797 925 b 528 1022 747 981 651 1022 b 49 496 242 1022 49 835 b 519 -31 49 157 242 -31 b 797 67 653 -31 736 13 z "},"º":{"ha":735,"x_min":0,"x_max":0,"o":"m 235 732 b 368 850 235 808 285 850 b 500 732 450 850 500 808 b 368 614 500 656 450 614 b 235 732 283 614 235 656 z m 1 732 b 368 481 1 563 136 481 b 733 732 599 481 733 563 b 368 983 733 903 599 983 b 1 732 136 983 1 903 z "},"æ":{"ha":1621,"x_min":0,"x_max":0,"o":"m 369 517 b 538 614 376 596 440 614 b 689 528 636 614 689 592 b 606 463 689 488 665 467 b 375 447 529 457 451 453 b 44 217 138 431 44 361 b 431 -31 44 28 197 -31 b 814 90 607 -31 747 18 b 1146 -31 892 -4 1014 -31 b 1567 222 1332 -31 1503 35 l 1281 222 b 1125 139 1260 182 1226 139 b 933 307 989 139 942 222 l 1576 307 l 1576 343 b 1119 783 1576 610 1438 783 b 842 697 1013 783 897 751 b 535 783 776 756 689 783 b 89 517 349 783 131 763 z m 933 451 b 1119 614 949 539 1003 614 b 1310 451 1240 614 1294 539 z m 692 303 b 471 139 692 188 619 139 b 339 224 386 139 339 171 b 436 307 339 271 375 300 b 692 344 504 317 635 315 z "},"ı":{"ha":461,"x_min":0,"x_max":0,"o":"m 83 0 l 378 0 l 378 753 l 83 753 z "},"ł":{"ha":461,"x_min":0,"x_max":0,"o":"m 83 0 l 378 0 l 378 528 l 461 578 l 461 772 l 378 722 l 378 1017 l 83 1017 l 83 554 l 0 503 l 0 308 l 83 360 z "},"ø":{"ha":1131,"x_min":0,"x_max":0,"o":"m 28 21 l 83 -53 l 213 47 b 565 -31 297 -4 417 -31 b 1093 376 906 -31 1093 110 b 993 647 1093 492 1058 582 l 1103 732 l 1047 806 l 918 706 b 565 783 832 757 713 783 b 38 376 225 783 38 643 b 138 106 38 263 72 172 z m 365 281 b 349 376 354 307 349 339 b 565 589 349 518 432 589 b 710 546 625 589 674 575 z m 765 472 b 782 376 776 446 782 414 b 565 164 782 235 699 164 b 421 207 506 164 457 178 z "},"œ":{"ha":1621,"x_min":0,"x_max":0,"o":"m 1281 222 b 1125 139 1260 182 1226 139 b 933 307 989 139 942 222 l 1576 307 l 1576 343 b 1119 783 1576 610 1438 783 b 817 683 967 783 872 739 b 497 783 750 739 658 783 b 38 376 190 783 38 628 b 497 -31 38 125 190 -31 b 815 83 667 -31 760 32 b 1146 -31 888 0 997 -31 b 1567 222 1332 -31 1503 35 z m 700 376 b 511 164 700 238 640 164 b 324 376 385 164 324 238 b 511 589 324 514 385 589 b 700 376 640 589 700 514 z m 933 451 b 1119 614 949 539 1003 614 b 1310 451 1240 614 1294 539 z "},"ß":{"ha":1157,"x_min":0,"x_max":0,"o":"m 88 0 l 382 0 l 382 621 b 575 811 382 739 410 811 b 726 715 675 811 726 781 b 565 628 726 664 682 628 l 494 628 l 494 458 l 586 458 b 794 335 676 458 794 443 b 618 197 794 243 729 197 b 468 215 579 197 525 203 l 468 10 b 694 -17 507 -1 601 -17 b 1106 300 935 -17 1106 92 b 908 569 1106 468 1017 550 l 908 572 b 1046 750 976 583 1046 635 b 581 1017 1046 939 871 1017 b 88 681 190 1017 88 875 z "},"¹":{"ha":551,"x_min":0,"x_max":0,"o":"m 224 392 l 449 392 l 449 969 l 278 969 b 76 872 242 885 167 872 l 46 872 l 46 728 l 224 728 z "},"¬":{"ha":833,"x_min":0,"x_max":0,"o":"m 574 150 l 768 150 l 768 604 l 65 604 l 65 410 l 574 410 z "},"µ":{"ha":1081,"x_min":0,"x_max":0,"o":"m 717 0 l 1003 0 l 1003 753 l 708 753 l 708 372 b 525 192 708 249 629 192 b 372 364 426 192 372 236 l 372 753 l 78 753 l 78 -272 l 372 -272 l 372 19 l 375 19 b 504 -31 403 -12 446 -31 b 714 97 571 -31 642 -4 l 717 97 z "},"™":{"ha":1389,"x_min":0,"x_max":0,"o":"m 158 419 l 353 419 l 353 847 l 494 847 l 494 992 l 17 992 l 17 847 l 158 847 z m 1153 419 l 1331 419 l 1331 992 l 1089 992 l 965 688 l 842 992 l 600 992 l 600 419 l 778 419 l 778 778 l 781 778 l 904 419 l 1026 419 l 1150 778 l 1153 778 z "},"Ð":{"ha":1338,"x_min":0,"x_max":0,"o":"m 100 0 l 774 0 b 1289 496 1058 0 1289 106 b 817 992 1289 826 1124 992 l 100 992 l 100 590 l 0 590 l 0 404 l 100 404 z m 647 590 l 431 590 l 431 769 l 681 769 b 947 497 857 769 947 682 b 707 222 947 361 896 222 l 431 222 l 431 404 l 647 404 z "},"½":{"ha":1851,"x_min":0,"x_max":0,"o":"m 386 -22 l 542 -22 l 1174 983 l 1018 983 z m 265 392 l 490 392 l 490 969 l 319 969 b 118 872 283 885 208 872 l 88 872 l 88 728 l 265 728 z m 1686 144 l 1215 144 l 1215 147 b 1499 206 1260 168 1385 186 b 1714 382 1611 225 1714 274 b 1353 592 1714 528 1582 592 b 1083 543 1243 592 1150 579 b 969 353 1017 507 976 447 l 1219 353 b 1353 447 1225 419 1283 447 b 1464 383 1422 446 1464 426 b 1399 325 1464 357 1435 335 l 1249 286 b 958 0 1089 244 967 176 l 1686 0 z "},"±":{"ha":833,"x_min":0,"x_max":0,"o":"m 319 581 l 65 581 l 65 386 l 319 386 l 319 264 l 514 264 l 514 386 l 768 386 l 768 581 l 514 581 l 514 703 l 319 703 z m 65 0 l 768 0 l 768 194 l 65 194 z "},"Þ":{"ha":1235,"x_min":0,"x_max":0,"o":"m 431 647 l 725 647 b 857 522 817 647 857 610 b 725 397 857 435 817 397 l 431 397 z m 100 0 l 431 0 l 431 192 l 849 192 b 1199 522 1115 192 1199 358 b 833 853 1199 710 1103 853 l 431 853 l 431 992 l 100 992 z "},"¼":{"ha":1851,"x_min":0,"x_max":0,"o":"m 1365 0 l 1579 0 l 1579 76 l 1676 76 l 1676 246 l 1579 246 l 1579 578 l 1300 578 l 946 226 l 946 76 l 1365 76 z m 1365 246 l 1142 246 l 1365 461 z m 407 -22 l 563 -22 l 1194 983 l 1039 983 z m 265 392 l 490 392 l 490 969 l 319 969 b 118 872 283 885 208 872 l 88 872 l 88 728 l 265 728 z "},"÷":{"ha":833,"x_min":0,"x_max":0,"o":"m 65 254 l 768 254 l 768 449 l 65 449 z m 279 646 b 417 508 279 569 340 508 b 554 646 493 508 554 569 b 417 783 554 722 493 783 b 279 646 340 783 279 722 z m 279 57 b 417 -81 279 -19 340 -81 b 554 57 493 -81 554 -19 b 417 194 554 133 493 194 b 279 57 340 194 279 133 z "},"¦":{"ha":308,"x_min":0,"x_max":0,"o":"m 51 -31 l 257 -31 l 257 381 l 51 381 z m 51 611 l 257 611 l 257 1022 l 51 1022 z "},"°":{"ha":556,"x_min":0,"x_max":0,"o":"m 56 761 b 278 539 56 639 156 539 b 500 761 400 539 500 639 b 278 983 500 883 400 983 b 56 761 156 983 56 883 z m 158 761 b 278 881 158 826 213 881 b 397 761 343 881 397 826 b 278 642 397 696 343 642 b 158 761 213 642 158 696 z "},"þ":{"ha":1131,"x_min":0,"x_max":0,"o":"m 78 -272 l 372 -272 l 372 68 l 375 68 b 665 -31 429 13 528 -31 b 1093 371 900 -31 1093 124 b 665 772 1093 643 900 772 b 375 653 582 772 429 743 l 372 653 l 372 1017 l 78 1017 z m 372 375 b 582 567 372 492 444 567 b 790 375 717 567 790 500 b 582 183 790 250 717 183 b 372 375 444 183 372 258 z "},"¾":{"ha":1851,"x_min":0,"x_max":0,"o":"m 1490 0 l 1704 0 l 1704 76 l 1801 76 l 1801 246 l 1704 246 l 1704 578 l 1425 578 l 1071 226 l 1071 76 l 1490 76 z m 1490 246 l 1267 246 l 1490 461 z m 303 619 l 413 619 b 543 563 504 619 543 600 b 413 519 543 528 478 519 b 311 533 368 519 335 525 b 274 569 289 543 276 554 l 32 569 b 419 375 40 439 125 375 b 801 557 671 375 801 428 b 649 693 801 644 729 686 l 649 696 b 775 811 718 700 775 742 b 431 983 775 933 678 983 b 174 950 333 983 243 976 b 50 797 106 924 58 878 l 297 797 b 415 850 315 844 358 850 b 525 800 467 850 525 839 b 426 753 525 765 489 753 l 303 753 z m 588 -22 l 743 -22 l 1375 983 l 1219 983 z "},"²":{"ha":801,"x_min":0,"x_max":0,"o":"m 747 536 l 276 536 l 276 539 b 560 597 321 560 446 578 b 775 774 672 617 775 665 b 414 983 775 919 643 983 b 144 935 304 983 211 971 b 31 744 78 899 38 839 l 281 744 b 414 839 286 811 344 839 b 525 775 483 838 525 818 b 460 717 525 749 496 726 l 310 678 b 19 392 150 636 28 568 l 747 392 z "},"®":{"ha":1111,"x_min":0,"x_max":0,"o":"m 29 496 b 556 -31 29 206 265 -31 b 1082 496 846 -31 1082 206 b 556 1022 1082 786 846 1022 b 29 496 265 1022 29 786 z m 207 496 b 556 869 207 729 372 869 b 904 496 735 869 904 729 b 556 122 904 263 735 122 b 207 496 372 122 207 263 z m 353 246 l 486 246 l 486 449 l 532 449 l 647 246 l 796 246 l 672 463 b 781 608 718 469 781 504 b 539 782 781 743 689 782 l 353 782 z m 486 551 l 486 679 l 556 679 b 636 615 607 679 636 658 b 556 551 636 572 607 551 z "},"−":{"ha":833,"x_min":0,"x_max":0,"o":"m 65 254 l 768 254 l 768 449 l 65 449 z "},"ð":{"ha":1131,"x_min":0,"x_max":0,"o":"m 349 335 b 565 506 349 442 419 506 b 782 335 711 506 782 442 b 565 164 782 228 711 164 b 349 335 417 164 349 228 z m 197 806 l 289 733 l 492 822 b 711 644 589 776 667 718 l 708 642 b 475 700 647 683 583 700 b 38 349 253 700 38 589 b 565 -31 38 97 226 -31 b 1093 400 904 -31 1093 97 b 760 942 1093 644 960 825 l 908 1007 l 806 1074 l 638 1000 b 367 1076 554 1035 463 1061 l 211 922 b 360 876 263 908 313 893 z "},"×":{"ha":833,"x_min":0,"x_max":0,"o":"m 279 351 l 81 153 l 218 15 l 417 214 l 615 15 l 753 153 l 554 351 l 753 550 l 615 688 l 417 489 l 218 688 l 81 550 z "},"³":{"ha":801,"x_min":0,"x_max":0,"o":"m 275 619 l 385 619 b 515 563 476 619 515 600 b 385 519 515 528 450 519 b 283 533 340 519 307 525 b 246 569 261 543 249 554 l 4 569 b 392 375 13 439 97 375 b 774 557 643 375 774 428 b 621 693 774 644 701 686 l 621 696 b 747 811 690 700 747 742 b 403 983 747 933 650 983 b 146 950 306 983 215 976 b 22 797 78 924 31 878 l 269 797 b 388 850 288 844 331 850 b 497 800 439 850 497 839 b 399 753 497 765 461 753 l 275 753 z "},"©":{"ha":1111,"x_min":0,"x_max":0,"o":"m 207 496 b 556 869 207 729 372 869 b 904 496 735 869 904 729 b 556 122 904 263 735 122 b 207 496 372 122 207 263 z m 671 414 b 574 325 664 354 625 325 b 438 497 490 325 438 393 b 569 665 438 600 485 665 b 671 582 621 665 658 636 l 824 582 b 569 799 801 725 701 799 b 285 494 396 799 285 669 b 578 192 285 325 401 192 b 829 414 700 192 808 268 z m 29 496 b 556 -31 29 206 265 -31 b 1082 496 846 -31 1082 206 b 556 1022 1082 786 846 1022 b 29 496 265 1022 29 786 z "},"Á":{"ha":1183,"x_min":0,"x_max":0,"o":"m -39 0 l 315 0 l 375 161 l 808 161 l 868 0 l 1222 0 l 796 992 l 392 992 z m 731 367 l 453 367 l 590 742 l 593 742 z m 417 1057 l 694 1057 l 901 1251 l 543 1251 z "},"Â":{"ha":1183,"x_min":0,"x_max":0,"o":"m -39 0 l 315 0 l 375 161 l 808 161 l 868 0 l 1222 0 l 796 992 l 392 992 z m 731 367 l 453 367 l 590 742 l 593 742 z m 179 1057 l 482 1057 l 581 1164 l 679 1057 l 1004 1057 l 797 1251 l 386 1251 z "},"Ä":{"ha":1183,"x_min":0,"x_max":0,"o":"m -39 0 l 315 0 l 375 161 l 808 161 l 868 0 l 1222 0 l 796 992 l 392 992 z m 731 367 l 453 367 l 590 742 l 593 742 z m 232 1044 l 526 1044 l 526 1222 l 232 1222 z m 657 1044 l 951 1044 l 951 1222 l 657 1222 z "},"À":{"ha":1183,"x_min":0,"x_max":0,"o":"m -39 0 l 315 0 l 375 161 l 808 161 l 868 0 l 1222 0 l 796 992 l 392 992 z m 731 367 l 453 367 l 590 742 l 593 742 z m 489 1057 l 767 1057 l 640 1251 l 282 1251 z "},"Å":{"ha":1183,"x_min":0,"x_max":0,"o":"m -39 0 l 315 0 l 375 161 l 808 161 l 868 0 l 1222 0 l 796 992 l 392 992 z m 731 367 l 453 367 l 590 742 l 593 742 z m 408 1204 b 592 1021 408 1103 490 1021 b 775 1204 693 1021 775 1103 b 592 1388 775 1306 693 1388 b 408 1204 490 1388 408 1306 z m 511 1204 b 592 1285 511 1249 547 1285 b 672 1204 636 1285 672 1249 b 592 1124 672 1160 636 1124 b 511 1204 547 1124 511 1160 z "},"Ã":{"ha":1183,"x_min":0,"x_max":0,"o":"m -39 0 l 315 0 l 375 161 l 808 161 l 868 0 l 1222 0 l 796 992 l 392 992 z m 731 367 l 453 367 l 590 742 l 593 742 z m 353 1050 b 417 1100 360 1075 375 1100 b 500 1083 432 1100 468 1090 b 768 1035 671 1044 710 1035 b 964 1240 897 1035 950 1135 l 835 1240 b 775 1192 826 1219 811 1192 b 736 1199 763 1192 750 1196 l 543 1239 b 444 1251 499 1249 471 1251 b 219 1050 349 1251 257 1210 z "},"Ç":{"ha":1338,"x_min":0,"x_max":0,"o":"m 933 382 b 674 192 911 267 822 192 b 399 496 460 192 399 332 b 674 800 399 660 467 800 b 929 610 861 800 910 681 l 1297 610 b 672 1022 1225 953 975 1022 b 49 496 242 1022 49 828 b 600 -28 49 175 229 -8 l 528 -136 l 563 -164 b 613 -154 575 -160 590 -154 b 667 -189 640 -154 667 -165 b 601 -232 667 -212 643 -232 b 489 -212 560 -232 518 -221 l 464 -283 b 667 -310 500 -293 558 -310 b 861 -187 789 -310 861 -269 b 724 -78 861 -107 779 -78 b 664 -81 699 -78 679 -79 l 694 -29 b 1300 382 1146 -24 1260 172 z "},"É":{"ha":1132,"x_min":0,"x_max":0,"o":"m 100 0 l 1093 0 l 1093 214 l 431 214 l 431 393 l 1051 393 l 1051 599 l 431 599 l 431 778 l 1093 778 l 1093 992 l 100 992 z m 392 1078 l 669 1078 l 876 1272 l 518 1272 z "},"Ê":{"ha":1132,"x_min":0,"x_max":0,"o":"m 100 0 l 1093 0 l 1093 214 l 431 214 l 431 393 l 1051 393 l 1051 599 l 431 599 l 431 778 l 1093 778 l 1093 992 l 100 992 z m 154 1078 l 457 1078 l 556 1185 l 654 1078 l 979 1078 l 772 1272 l 361 1272 z "},"Ë":{"ha":1132,"x_min":0,"x_max":0,"o":"m 100 0 l 1093 0 l 1093 214 l 431 214 l 431 393 l 1051 393 l 1051 599 l 431 599 l 431 778 l 1093 778 l 1093 992 l 100 992 z m 207 1065 l 501 1065 l 501 1243 l 207 1243 z m 632 1065 l 926 1065 l 926 1243 l 632 1243 z "},"È":{"ha":1132,"x_min":0,"x_max":0,"o":"m 100 0 l 1093 0 l 1093 214 l 431 214 l 431 393 l 1051 393 l 1051 599 l 431 599 l 431 778 l 1093 778 l 1093 992 l 100 992 z m 464 1078 l 742 1078 l 615 1272 l 257 1272 z "},"Í":{"ha":539,"x_min":0,"x_max":0,"o":"m 104 0 l 435 0 l 435 992 l 104 992 z m 94 1078 l 372 1078 l 579 1272 l 221 1272 z "},"Î":{"ha":539,"x_min":0,"x_max":0,"o":"m 104 0 l 435 0 l 435 992 l 104 992 z m -143 1078 l 160 1078 l 258 1185 l 357 1078 l 682 1078 l 475 1272 l 64 1272 z "},"Ï":{"ha":539,"x_min":0,"x_max":0,"o":"m 104 0 l 435 0 l 435 992 l 104 992 z m -90 1065 l 204 1065 l 204 1243 l -90 1243 z m 335 1065 l 629 1065 l 629 1243 l 335 1243 z "},"Ì":{"ha":539,"x_min":0,"x_max":0,"o":"m 104 0 l 435 0 l 435 992 l 104 992 z m 167 1078 l 444 1078 l 318 1272 l -40 1272 z "},"Ñ":{"ha":1363,"x_min":0,"x_max":0,"o":"m 100 0 l 419 0 l 419 626 l 422 626 l 897 0 l 1263 0 l 1263 992 l 943 992 l 943 371 l 940 371 l 481 992 l 100 992 z m 443 1071 b 507 1121 450 1096 465 1121 b 590 1104 522 1121 558 1111 b 858 1056 761 1065 800 1056 b 1054 1261 988 1056 1040 1156 l 925 1261 b 865 1213 917 1240 901 1213 b 826 1219 853 1213 840 1217 l 633 1260 b 535 1272 589 1269 561 1272 b 310 1071 439 1272 347 1231 z "},"Ó":{"ha":1389,"x_min":0,"x_max":0,"o":"m 49 496 b 694 -31 49 85 344 -31 b 1340 496 1044 -31 1340 85 b 694 1022 1340 907 1044 1022 b 49 496 344 1022 49 907 z m 399 496 b 694 800 399 703 518 800 b 990 496 872 800 990 703 b 694 192 990 288 872 192 b 399 496 518 192 399 288 z m 519 1078 l 797 1078 l 1004 1272 l 646 1272 z "},"Ô":{"ha":1389,"x_min":0,"x_max":0,"o":"m 49 496 b 694 -31 49 85 344 -31 b 1340 496 1044 -31 1340 85 b 694 1022 1340 907 1044 1022 b 49 496 344 1022 49 907 z m 399 496 b 694 800 399 703 518 800 b 990 496 872 800 990 703 b 694 192 990 288 872 192 b 399 496 518 192 399 288 z m 282 1078 l 585 1078 l 683 1185 l 782 1078 l 1107 1078 l 900 1272 l 489 1272 z "},"Ö":{"ha":1389,"x_min":0,"x_max":0,"o":"m 49 496 b 694 -31 49 85 344 -31 b 1340 496 1044 -31 1340 85 b 694 1022 1340 907 1044 1022 b 49 496 344 1022 49 907 z m 399 496 b 694 800 399 703 518 800 b 990 496 872 800 990 703 b 694 192 990 288 872 192 b 399 496 518 192 399 288 z m 335 1065 l 629 1065 l 629 1243 l 335 1243 z m 760 1065 l 1054 1065 l 1054 1243 l 760 1243 z "},"Ò":{"ha":1389,"x_min":0,"x_max":0,"o":"m 49 496 b 694 -31 49 85 344 -31 b 1340 496 1044 -31 1340 85 b 694 1022 1340 907 1044 1022 b 49 496 344 1022 49 907 z m 399 496 b 694 800 399 703 518 800 b 990 496 872 800 990 703 b 694 192 990 288 872 192 b 399 496 518 192 399 288 z m 592 1078 l 869 1078 l 743 1272 l 385 1272 z "},"Õ":{"ha":1389,"x_min":0,"x_max":0,"o":"m 49 496 b 694 -31 49 85 344 -31 b 1340 496 1044 -31 1340 85 b 694 1022 1340 907 1044 1022 b 49 496 344 1022 49 907 z m 399 496 b 694 800 399 703 518 800 b 990 496 872 800 990 703 b 694 192 990 288 872 192 b 399 496 518 192 399 288 z m 456 1071 b 519 1121 463 1096 478 1121 b 603 1104 535 1121 571 1111 b 871 1056 774 1065 813 1056 b 1067 1261 1000 1056 1053 1156 l 938 1261 b 878 1213 929 1240 914 1213 b 839 1219 865 1213 853 1217 l 646 1260 b 547 1272 601 1269 574 1272 b 322 1071 451 1272 360 1231 z "},"Š":{"ha":1235,"x_min":0,"x_max":0,"o":"m 1161 701 b 564 1022 1140 936 924 1022 b 49 707 129 1022 49 838 b 332 426 49 560 128 457 l 663 376 b 819 288 778 358 819 340 b 646 183 819 203 729 183 b 424 306 474 183 432 231 l 32 306 b 631 -31 51 29 294 -31 b 1203 308 767 -31 1203 -28 b 907 590 1203 483 1092 558 b 472 658 810 607 556 644 b 399 719 422 667 399 686 b 571 817 399 785 460 817 b 786 701 722 817 776 769 z m 413 1078 l 824 1078 l 1031 1272 l 728 1272 l 629 1165 l 531 1272 l 206 1272 z "},"Ú":{"ha":1286,"x_min":0,"x_max":0,"o":"m 86 350 b 643 -31 86 76 292 -31 b 1200 350 994 -31 1200 76 l 1200 992 l 869 992 l 869 404 b 643 192 869 243 794 192 b 417 404 492 192 417 243 l 417 992 l 86 992 z m 468 1078 l 746 1078 l 953 1272 l 594 1272 z "},"Û":{"ha":1286,"x_min":0,"x_max":0,"o":"m 86 350 b 643 -31 86 76 292 -31 b 1200 350 994 -31 1200 76 l 1200 992 l 869 992 l 869 404 b 643 192 869 243 794 192 b 417 404 492 192 417 243 l 417 992 l 86 992 z m 231 1078 l 533 1078 l 632 1185 l 731 1078 l 1056 1078 l 849 1272 l 438 1272 z "},"Ü":{"ha":1286,"x_min":0,"x_max":0,"o":"m 86 350 b 643 -31 86 76 292 -31 b 1200 350 994 -31 1200 76 l 1200 992 l 869 992 l 869 404 b 643 192 869 243 794 192 b 417 404 492 192 417 243 l 417 992 l 86 992 z m 283 1065 l 578 1065 l 578 1243 l 283 1243 z m 708 1065 l 1003 1065 l 1003 1243 l 708 1243 z "},"Ù":{"ha":1286,"x_min":0,"x_max":0,"o":"m 86 350 b 643 -31 86 76 292 -31 b 1200 350 994 -31 1200 76 l 1200 992 l 869 992 l 869 404 b 643 192 869 243 794 192 b 417 404 492 192 417 243 l 417 992 l 86 992 z m 540 1078 l 818 1078 l 692 1272 l 333 1272 z "},"Ý":{"ha":1131,"x_min":0,"x_max":0,"o":"m 400 0 l 731 0 l 731 313 l 1171 992 l 788 992 l 565 571 l 343 992 l -40 992 l 400 313 z m 390 1078 l 668 1078 l 875 1272 l 517 1272 z "},"Ÿ":{"ha":1131,"x_min":0,"x_max":0,"o":"m 400 0 l 731 0 l 731 313 l 1171 992 l 788 992 l 565 571 l 343 992 l -40 992 l 400 313 z m 206 1065 l 500 1065 l 500 1243 l 206 1243 z m 631 1065 l 925 1065 l 925 1243 l 631 1243 z "},"Ž":{"ha":1131,"x_min":0,"x_max":0,"o":"m 25 0 l 1083 0 l 1083 222 l 472 222 l 1093 797 l 1093 992 l 68 992 l 68 769 l 650 769 l 25 190 z m 360 1078 l 771 1078 l 978 1272 l 675 1272 l 576 1165 l 478 1272 l 153 1272 z "},"á":{"ha":1131,"x_min":0,"x_max":0,"o":"m 383 517 b 558 611 397 581 450 611 b 744 531 688 611 744 583 b 656 469 744 492 732 475 l 363 450 b 38 204 151 436 38 375 b 406 -31 38 47 165 -31 b 760 69 554 -31 675 -11 b 775 0 761 49 765 22 l 1069 0 b 1039 136 1046 43 1039 72 l 1039 517 b 560 772 1039 728 833 772 b 89 517 329 772 117 740 z m 753 306 b 489 139 753 203 658 139 b 357 231 410 139 357 172 b 442 307 357 276 382 300 l 640 331 b 753 351 694 338 731 344 z m 390 839 l 668 839 l 875 1033 l 517 1033 z "},"â":{"ha":1131,"x_min":0,"x_max":0,"o":"m 383 517 b 558 611 397 581 450 611 b 744 531 688 611 744 583 b 656 469 744 492 732 475 l 363 450 b 38 204 151 436 38 375 b 406 -31 38 47 165 -31 b 760 69 554 -31 675 -11 b 775 0 761 49 765 22 l 1069 0 b 1039 136 1046 43 1039 72 l 1039 517 b 560 772 1039 728 833 772 b 89 517 329 772 117 740 z m 753 306 b 489 139 753 203 658 139 b 357 231 410 139 357 172 b 442 307 357 276 382 300 l 640 331 b 753 351 694 338 731 344 z m 153 839 l 456 839 l 554 946 l 653 839 l 978 839 l 771 1033 l 360 1033 z "},"ä":{"ha":1131,"x_min":0,"x_max":0,"o":"m 383 517 b 558 611 397 581 450 611 b 744 531 688 611 744 583 b 656 469 744 492 732 475 l 363 450 b 38 204 151 436 38 375 b 406 -31 38 47 165 -31 b 760 69 554 -31 675 -11 b 775 0 761 49 765 22 l 1069 0 b 1039 136 1046 43 1039 72 l 1039 517 b 560 772 1039 728 833 772 b 89 517 329 772 117 740 z m 753 306 b 489 139 753 203 658 139 b 357 231 410 139 357 172 b 442 307 357 276 382 300 l 640 331 b 753 351 694 338 731 344 z m 206 826 l 500 826 l 500 1004 l 206 1004 z m 631 826 l 925 826 l 925 1004 l 631 1004 z "},"à":{"ha":1131,"x_min":0,"x_max":0,"o":"m 383 517 b 558 611 397 581 450 611 b 744 531 688 611 744 583 b 656 469 744 492 732 475 l 363 450 b 38 204 151 436 38 375 b 406 -31 38 47 165 -31 b 760 69 554 -31 675 -11 b 775 0 761 49 765 22 l 1069 0 b 1039 136 1046 43 1039 72 l 1039 517 b 560 772 1039 728 833 772 b 89 517 329 772 117 740 z m 753 306 b 489 139 753 203 658 139 b 357 231 410 139 357 172 b 442 307 357 276 382 300 l 640 331 b 753 351 694 338 731 344 z m 463 839 l 740 839 l 614 1033 l 256 1033 z "},"å":{"ha":1131,"x_min":0,"x_max":0,"o":"m 383 517 b 558 611 397 581 450 611 b 744 531 688 611 744 583 b 656 469 744 492 732 475 l 363 450 b 38 204 151 436 38 375 b 406 -31 38 47 165 -31 b 760 69 554 -31 675 -11 b 775 0 761 49 765 22 l 1069 0 b 1039 136 1046 43 1039 72 l 1039 517 b 560 772 1039 728 833 772 b 89 517 329 772 117 740 z m 753 306 b 489 139 753 203 658 139 b 357 231 410 139 357 172 b 442 307 357 276 382 300 l 640 331 b 753 351 694 338 731 344 z m 396 1000 b 579 817 396 899 478 817 b 763 1000 681 817 763 899 b 579 1183 763 1101 681 1183 b 396 1000 478 1183 396 1101 z m 499 1000 b 579 1081 499 1044 535 1081 b 660 1000 624 1081 660 1044 b 579 919 660 956 624 919 b 499 1000 535 919 499 956 z "},"ã":{"ha":1131,"x_min":0,"x_max":0,"o":"m 383 517 b 558 611 397 581 450 611 b 744 531 688 611 744 583 b 656 469 744 492 732 475 l 363 450 b 38 204 151 436 38 375 b 406 -31 38 47 165 -31 b 760 69 554 -31 675 -11 b 775 0 761 49 765 22 l 1069 0 b 1039 136 1046 43 1039 72 l 1039 517 b 560 772 1039 728 833 772 b 89 517 329 772 117 740 z m 753 306 b 489 139 753 203 658 139 b 357 231 410 139 357 172 b 442 307 357 276 382 300 l 640 331 b 753 351 694 338 731 344 z m 326 832 b 390 882 333 857 349 882 b 474 865 406 882 442 872 b 742 817 644 826 683 817 b 938 1022 871 817 924 917 l 808 1022 b 749 974 800 1001 785 974 b 710 981 736 974 724 978 l 517 1021 b 418 1033 472 1031 444 1033 b 193 832 322 1033 231 992 z "},"ç":{"ha":1131,"x_min":0,"x_max":0,"o":"m 782 307 b 578 164 763 211 689 164 b 356 376 436 164 356 240 b 576 589 356 513 439 589 b 776 460 701 589 763 542 l 1079 460 b 572 783 1053 699 853 783 b 44 376 249 783 44 649 b 497 -26 44 121 210 -10 l 424 -136 l 458 -164 b 508 -154 471 -160 486 -154 b 563 -189 536 -154 563 -165 b 497 -232 563 -212 539 -232 b 385 -212 456 -232 414 -221 l 360 -283 b 563 -310 396 -293 454 -310 b 757 -187 685 -310 757 -269 b 619 -78 757 -107 675 -78 b 560 -81 594 -78 575 -79 l 592 -29 b 1093 307 908 -25 1050 96 z "},"é":{"ha":1131,"x_min":0,"x_max":0,"o":"m 347 460 b 565 614 364 543 426 614 b 783 460 704 614 767 543 z m 761 224 b 583 139 726 179 678 139 b 347 307 432 139 363 210 l 1086 307 l 1086 329 b 564 783 1086 643 886 783 b 44 378 251 783 44 644 b 572 -31 44 99 233 -31 b 1072 224 893 -31 1036 99 z m 390 839 l 668 839 l 875 1033 l 517 1033 z "},"ê":{"ha":1131,"x_min":0,"x_max":0,"o":"m 347 460 b 565 614 364 543 426 614 b 783 460 704 614 767 543 z m 761 224 b 583 139 726 179 678 139 b 347 307 432 139 363 210 l 1086 307 l 1086 329 b 564 783 1086 643 886 783 b 44 378 251 783 44 644 b 572 -31 44 99 233 -31 b 1072 224 893 -31 1036 99 z m 153 839 l 456 839 l 554 946 l 653 839 l 978 839 l 771 1033 l 360 1033 z "},"ë":{"ha":1131,"x_min":0,"x_max":0,"o":"m 347 460 b 565 614 364 543 426 614 b 783 460 704 614 767 543 z m 761 224 b 583 139 726 179 678 139 b 347 307 432 139 363 210 l 1086 307 l 1086 329 b 564 783 1086 643 886 783 b 44 378 251 783 44 644 b 572 -31 44 99 233 -31 b 1072 224 893 -31 1036 99 z m 206 826 l 500 826 l 500 1004 l 206 1004 z m 631 826 l 925 826 l 925 1004 l 631 1004 z "},"è":{"ha":1131,"x_min":0,"x_max":0,"o":"m 347 460 b 565 614 364 543 426 614 b 783 460 704 614 767 543 z m 761 224 b 583 139 726 179 678 139 b 347 307 432 139 363 210 l 1086 307 l 1086 329 b 564 783 1086 643 886 783 b 44 378 251 783 44 644 b 572 -31 44 99 233 -31 b 1072 224 893 -31 1036 99 z m 463 839 l 740 839 l 614 1033 l 256 1033 z "},"í":{"ha":461,"x_min":0,"x_max":0,"o":"m 83 0 l 378 0 l 378 753 l 83 753 z m 56 839 l 333 839 l 540 1033 l 182 1033 z "},"î":{"ha":461,"x_min":0,"x_max":0,"o":"m 83 0 l 378 0 l 378 753 l 83 753 z m -182 839 l 121 839 l 219 946 l 318 839 l 643 839 l 436 1033 l 25 1033 z "},"ï":{"ha":461,"x_min":0,"x_max":0,"o":"m 83 0 l 378 0 l 378 753 l 83 753 z m -129 826 l 165 826 l 165 1004 l -129 1004 z m 296 826 l 590 826 l 590 1004 l 296 1004 z "},"ì":{"ha":461,"x_min":0,"x_max":0,"o":"m 83 0 l 378 0 l 378 753 l 83 753 z m 128 839 l 406 839 l 279 1033 l -79 1033 z "},"ñ":{"ha":1081,"x_min":0,"x_max":0,"o":"m 78 0 l 372 0 l 372 369 b 556 550 372 493 451 550 b 708 407 654 550 708 503 l 708 0 l 1003 0 l 1003 496 b 683 772 1003 683 868 772 b 367 644 535 772 426 718 l 364 644 l 364 753 l 78 753 z m 301 832 b 365 882 308 857 324 882 b 449 865 381 882 417 872 b 717 817 619 826 658 817 b 913 1022 846 817 899 917 l 783 1022 b 724 974 775 1001 760 974 b 685 981 711 974 699 978 l 492 1021 b 393 1033 447 1031 419 1033 b 168 832 297 1033 206 992 z "},"ó":{"ha":1131,"x_min":0,"x_max":0,"o":"m 565 589 b 782 376 699 589 782 518 b 565 164 782 235 699 164 b 349 376 432 164 349 235 b 565 589 349 518 432 589 z m 38 376 b 565 -31 38 110 225 -31 b 1093 376 906 -31 1093 110 b 565 783 1093 643 906 783 b 38 376 225 783 38 643 z m 390 839 l 668 839 l 875 1033 l 517 1033 z "},"ô":{"ha":1131,"x_min":0,"x_max":0,"o":"m 565 589 b 782 376 699 589 782 518 b 565 164 782 235 699 164 b 349 376 432 164 349 235 b 565 589 349 518 432 589 z m 38 376 b 565 -31 38 110 225 -31 b 1093 376 906 -31 1093 110 b 565 783 1093 643 906 783 b 38 376 225 783 38 643 z m 153 839 l 456 839 l 554 946 l 653 839 l 978 839 l 771 1033 l 360 1033 z "},"ö":{"ha":1131,"x_min":0,"x_max":0,"o":"m 565 589 b 782 376 699 589 782 518 b 565 164 782 235 699 164 b 349 376 432 164 349 235 b 565 589 349 518 432 589 z m 38 376 b 565 -31 38 110 225 -31 b 1093 376 906 -31 1093 110 b 565 783 1093 643 906 783 b 38 376 225 783 38 643 z m 206 826 l 500 826 l 500 1004 l 206 1004 z m 631 826 l 925 826 l 925 1004 l 631 1004 z "},"ò":{"ha":1131,"x_min":0,"x_max":0,"o":"m 565 589 b 782 376 699 589 782 518 b 565 164 782 235 699 164 b 349 376 432 164 349 235 b 565 589 349 518 432 589 z m 38 376 b 565 -31 38 110 225 -31 b 1093 376 906 -31 1093 110 b 565 783 1093 643 906 783 b 38 376 225 783 38 643 z m 463 839 l 740 839 l 614 1033 l 256 1033 z "},"õ":{"ha":1131,"x_min":0,"x_max":0,"o":"m 565 589 b 782 376 699 589 782 518 b 565 164 782 235 699 164 b 349 376 432 164 349 235 b 565 589 349 518 432 589 z m 38 376 b 565 -31 38 110 225 -31 b 1093 376 906 -31 1093 110 b 565 783 1093 643 906 783 b 38 376 225 783 38 643 z m 326 832 b 390 882 333 857 349 882 b 474 865 406 882 442 872 b 742 817 644 826 683 817 b 938 1022 871 817 924 917 l 808 1022 b 749 974 800 1001 785 974 b 710 981 736 974 724 978 l 517 1021 b 418 1033 472 1031 444 1033 b 193 832 322 1033 231 992 z "},"š":{"ha":1054,"x_min":0,"x_max":0,"o":"m 38 235 b 535 -31 44 7 326 -31 b 1017 231 847 -31 1017 53 b 714 463 1017 378 917 440 l 460 490 b 365 543 385 499 365 519 b 500 614 365 594 415 614 b 606 597 538 614 576 610 b 658 533 635 586 656 565 l 989 533 b 519 783 972 747 719 783 b 63 515 238 783 63 719 b 322 306 63 388 150 326 l 585 274 b 686 214 657 265 686 254 b 551 147 686 160 617 147 b 421 171 488 147 447 156 b 379 235 394 185 383 207 z m 322 839 l 733 839 l 940 1033 l 638 1033 l 539 926 l 440 1033 l 115 1033 z "},"ú":{"ha":1081,"x_min":0,"x_max":0,"o":"m 78 274 b 397 -31 78 47 217 -31 b 714 97 546 -31 654 24 l 717 97 l 717 0 l 1003 0 l 1003 753 l 708 753 l 708 372 b 525 192 708 249 629 192 b 372 364 426 192 372 236 l 372 753 l 78 753 z m 365 839 l 643 839 l 850 1033 l 492 1033 z "},"û":{"ha":1081,"x_min":0,"x_max":0,"o":"m 78 274 b 397 -31 78 47 217 -31 b 714 97 546 -31 654 24 l 717 97 l 717 0 l 1003 0 l 1003 753 l 708 753 l 708 372 b 525 192 708 249 629 192 b 372 364 426 192 372 236 l 372 753 l 78 753 z m 128 839 l 431 839 l 529 946 l 628 839 l 953 839 l 746 1033 l 335 1033 z "},"ü":{"ha":1081,"x_min":0,"x_max":0,"o":"m 78 274 b 397 -31 78 47 217 -31 b 714 97 546 -31 654 24 l 717 97 l 717 0 l 1003 0 l 1003 753 l 708 753 l 708 372 b 525 192 708 249 629 192 b 372 364 426 192 372 236 l 372 753 l 78 753 z m 181 826 l 475 826 l 475 1004 l 181 1004 z m 606 826 l 900 826 l 900 1004 l 606 1004 z "},"ù":{"ha":1081,"x_min":0,"x_max":0,"o":"m 78 274 b 397 -31 78 47 217 -31 b 714 97 546 -31 654 24 l 717 97 l 717 0 l 1003 0 l 1003 753 l 708 753 l 708 372 b 525 192 708 249 629 192 b 372 364 426 192 372 236 l 372 753 l 78 753 z m 438 839 l 715 839 l 589 1033 l 231 1033 z "},"ý":{"ha":951,"x_min":0,"x_max":0,"o":"m 89 -264 b 296 -272 146 -268 218 -272 b 578 -94 479 -272 524 -208 l 978 753 l 667 753 l 483 306 l 293 753 l -26 753 l 328 43 l 294 -24 b 160 -78 281 -50 263 -78 l 89 -78 z m 301 839 l 579 839 l 786 1033 l 428 1033 z "},"ÿ":{"ha":951,"x_min":0,"x_max":0,"o":"m 89 -264 b 296 -272 146 -268 218 -272 b 578 -94 479 -272 524 -208 l 978 753 l 667 753 l 483 306 l 293 753 l -26 753 l 328 43 l 294 -24 b 160 -78 281 -50 263 -78 l 89 -78 z m 117 826 l 411 826 l 411 1004 l 117 1004 z m 542 826 l 836 826 l 836 1004 l 542 1004 z "},"ž":{"ha":926,"x_min":0,"x_max":0,"o":"m 31 0 l 896 0 l 896 206 l 443 206 l 882 575 l 882 753 l 54 753 l 54 547 l 483 547 l 483 544 l 31 178 z m 258 839 l 669 839 l 876 1033 l 574 1033 l 475 926 l 376 1033 l 51 1033 z "},"∆":{"ha":1160,"x_min":0,"x_max":0,"o":"m 35 0 l 1125 0 l 1125 121 l 743 990 l 419 990 l 35 121 z m 325 190 l 494 619 b 561 804 517 679 547 761 l 568 804 b 644 606 588 743 621 664 l 813 190 z "},"Ω":{"ha":1303,"x_min":0,"x_max":0,"o":"m 306 188 l 65 188 l 65 0 l 592 0 l 592 147 b 357 497 453 213 357 342 b 656 800 357 683 490 800 b 946 501 833 800 946 661 b 713 147 946 324 847 229 l 713 0 l 1236 0 l 1236 188 l 992 188 l 992 193 b 1217 547 1113 268 1217 369 b 653 985 1217 792 1001 985 b 85 550 306 985 85 792 b 306 193 85 368 204 250 z "},"μ":{"ha":1081,"x_min":0,"x_max":0,"o":"m 717 0 l 1003 0 l 1003 753 l 708 753 l 708 372 b 525 192 708 249 629 192 b 372 364 426 192 372 236 l 372 753 l 78 753 l 78 -272 l 372 -272 l 372 19 l 375 19 b 504 -31 403 -12 446 -31 b 714 97 571 -31 642 -4 l 717 97 z "},"π":{"ha":1076,"x_min":0,"x_max":0,"o":"m 1033 538 l 1057 728 l 303 728 b 0 675 132 728 38 710 l 26 525 b 189 538 71 536 131 538 b 99 0 192 383 146 133 l 364 0 b 456 538 414 92 453 361 l 651 538 l 651 225 b 679 0 651 128 657 25 l 943 0 b 924 249 932 47 924 142 l 924 538 z "},"€":{"ha":1233,"x_min":0,"x_max":0,"o":"m 1189 894 b 1050 951 1150 917 1107 936 b 776 983 1022 958 925 983 b 396 888 647 983 508 965 b 226 646 319 835 256 756 l 114 646 l 42 526 l 208 526 b 210 432 204 494 204 463 l 114 432 l 42 313 l 229 313 b 392 76 263 188 338 114 b 765 -22 488 8 619 -22 b 1021 13 844 -22 939 -12 b 1147 67 1069 28 1111 46 l 1147 331 b 1017 229 1108 285 1063 251 b 801 183 926 186 833 183 b 638 221 744 183 683 193 b 561 313 592 249 571 285 l 843 313 l 915 432 l 532 432 b 528 526 525 463 522 493 l 969 526 l 1042 646 l 549 646 b 631 740 571 697 606 725 b 801 778 676 768 739 778 b 965 753 853 778 914 771 b 1067 700 1010 738 1044 717 z "},"ℓ":{"ha":964,"x_min":0,"x_max":0,"o":"m 808 311 b 578 185 756 246 669 185 b 444 296 504 185 453 229 l 443 311 b 801 797 671 481 801 617 b 518 1057 801 932 713 1057 b 189 643 313 1057 189 936 l 189 365 b 46 276 142 336 89 304 l 119 151 b 194 197 147 167 165 179 b 197 186 196 193 196 190 b 511 -18 243 46 343 -18 b 922 200 658 -18 818 39 z m 443 725 b 532 897 443 853 488 897 b 607 794 581 897 607 857 b 443 518 607 710 542 607 z "},"℮":{"ha":1213,"x_min":0,"x_max":0,"o":"m 1164 467 l 1164 479 b 604 983 1164 758 914 983 b 47 479 297 983 47 758 b 604 -21 47 203 297 -21 b 1046 174 785 -21 947 56 l 967 174 b 606 7 878 72 750 7 b 264 156 472 7 351 65 b 253 188 257 164 253 175 l 253 461 b 260 467 253 465 256 467 z m 958 503 b 953 493 958 499 957 493 l 260 493 b 253 503 256 493 253 499 l 253 771 b 265 806 253 785 257 797 b 606 953 353 894 474 953 b 946 810 739 953 857 896 b 958 778 954 801 958 789 z "},"∂":{"ha":1014,"x_min":0,"x_max":0,"o":"m 163 833 b 401 894 199 853 283 894 b 693 581 590 894 693 750 l 693 553 l 692 553 b 425 685 661 596 572 685 b 44 321 190 685 44 518 b 431 -18 44 183 161 -18 b 953 542 731 -18 953 201 b 435 1085 953 867 733 1085 b 83 993 250 1085 129 1022 z m 460 168 b 308 322 375 168 308 231 b 489 501 308 425 383 501 b 665 376 590 501 653 422 b 461 168 650 274 571 168 z "},"∏":{"ha":1239,"x_min":0,"x_max":0,"o":"m 1211 761 l 1211 967 l 26 967 l 26 761 l 203 761 l 203 -133 l 458 -133 l 458 761 l 779 761 l 779 -133 l 1035 -133 l 1035 761 z "},"∑":{"ha":986,"x_min":0,"x_max":0,"o":"m 964 -133 l 964 71 l 389 71 l 389 78 l 721 431 l 419 756 l 419 761 l 925 761 l 925 967 l 53 967 l 53 810 l 422 408 l 31 0 l 31 -133 z "},"∙":{"ha":539,"x_min":0,"x_max":0,"o":"m 104 361 b 269 196 104 269 178 196 b 435 361 361 196 435 269 b 269 526 435 453 361 526 b 104 361 178 526 104 453 z "},"√":{"ha":1035,"x_min":0,"x_max":0,"o":"m 1081 1151 l 894 1151 l 608 133 b 578 13 596 88 586 47 l 575 13 b 533 128 563 51 549 89 l 353 583 l 39 454 l 82 339 l 203 388 l 472 -214 l 674 -214 z "},"∞":{"ha":1186,"x_min":0,"x_max":0,"o":"m 1118 403 b 871 660 1118 560 1006 658 b 603 500 733 663 660 564 b 329 660 526 600 446 660 b 67 393 181 660 67 551 b 315 131 67 233 185 131 b 590 296 436 131 514 201 b 864 131 690 158 788 131 b 1118 401 993 131 1118 231 z m 329 256 b 196 393 253 256 196 319 b 325 538 196 483 254 538 b 522 388 419 538 465 468 b 332 256 474 329 411 256 z m 858 538 b 986 392 936 538 986 476 b 865 256 986 331 944 256 b 667 397 801 256 753 285 b 857 538 713 453 774 538 z "},"∫":{"ha":624,"x_min":0,"x_max":0,"o":"m 618 1186 b 515 1204 600 1194 557 1204 b 311 1136 440 1204 360 1185 b 206 813 239 1068 206 975 b 233 147 206 574 233 406 b 189 -53 233 33 219 -17 b 110 -85 169 -74 142 -85 b 35 -71 82 -85 54 -78 l 7 -226 b 149 -250 38 -240 101 -250 b 376 -128 236 -250 326 -214 b 433 142 410 -74 433 19 b 407 786 433 394 407 560 b 443 1007 407 900 415 967 b 531 1049 460 1032 494 1049 b 594 1038 554 1049 576 1044 z "},"≈":{"ha":917,"x_min":0,"x_max":0,"o":"m 774 668 b 615 564 724 601 675 564 b 474 618 565 564 539 579 b 304 668 428 646 379 668 b 44 518 203 668 96 597 l 132 425 b 301 529 181 482 232 529 b 439 483 356 529 397 504 b 624 424 507 447 551 424 b 864 575 703 424 790 472 z m 774 375 b 614 271 718 306 676 271 b 472 326 554 271 519 300 b 306 375 428 351 379 375 b 44 225 204 375 96 304 l 132 132 b 303 235 181 189 229 235 b 439 190 354 235 392 214 b 622 131 501 156 551 131 b 864 282 707 131 792 181 z "},"≠":{"ha":917,"x_min":0,"x_max":0,"o":"m 683 738 l 571 790 l 492 619 l 76 619 l 76 485 l 431 485 l 346 303 l 76 303 l 76 167 l 285 167 l 228 44 l 339 -7 l 419 167 l 840 167 l 840 303 l 482 303 l 567 485 l 840 485 l 840 619 l 628 619 z "},"≤":{"ha":917,"x_min":0,"x_max":0,"o":"m 839 185 l 839 332 l 229 576 l 229 579 l 838 821 l 838 968 l 78 649 l 78 504 z m 840 -4 l 840 133 l 75 133 l 75 -4 z "},"≥":{"ha":917,"x_min":0,"x_max":0,"o":"m 78 968 l 78 821 l 688 579 l 688 575 l 79 332 l 79 185 l 839 504 l 839 649 z m 832 -4 l 832 133 l 78 133 l 78 -4 z "},"◊":{"ha":1035,"x_min":0,"x_max":0,"o":"m 964 482 l 614 1031 l 418 1031 l 71 482 l 418 -67 l 614 -67 z m 740 476 l 549 154 b 522 104 539 139 528 117 l 517 104 b 490 154 513 115 501 138 l 292 486 l 483 807 b 511 858 493 824 506 844 l 515 858 b 543 807 519 846 533 822 z "}," ":{"ha":539,"x_min":0,"x_max":0,"o":""},"­":{"ha":668,"x_min":0,"x_max":0,"o":"m 85 296 l 583 296 l 583 510 l 85 510 z "},"ˉ":{"ha":386,"x_min":0,"x_max":0,"o":"m -172 861 l 558 861 l 558 1022 l -172 1022 z "},"Ω":{"ha":1303,"x_min":0,"x_max":0,"o":"m 306 188 l 65 188 l 65 0 l 592 0 l 592 147 b 357 497 453 213 357 342 b 656 800 357 683 490 800 b 946 501 833 800 946 661 b 713 147 946 324 847 229 l 713 0 l 1236 0 l 1236 188 l 992 188 l 992 193 b 1217 547 1113 268 1217 369 b 653 985 1217 792 1001 985 b 85 550 306 985 85 792 b 306 193 85 368 204 250 z "},"∕":{"ha":232,"x_min":0,"x_max":0,"o":"m -278 -22 l -122 -22 l 510 983 l 354 983 z "},"‐":{"ha":668,"x_min":0,"x_max":0,"o":"m 85 296 l 583 296 l 583 510 l 85 510 z "}}}
